<svg id="svg" version="1.1" xmlns="http://www.w3.org/2000/svg" xmlns:xlink="http://www.w3.org/1999/xlink" width="400" height="300" viewBox="0, 0, 400,300"><g id="svgg"><path id="path0" d="M0.075 150.066 L 0.149 300.225 0.225 150.263 L 0.301 0.300 67.781 0.300 C 121.413 0.300,135.319 0.377,135.545 0.675 C 135.701 0.881,137.083 3.953,138.616 7.502 C 140.149 11.050,142.529 16.519,143.904 19.655 C 146.864 26.402,158.912 54.092,161.595 60.315 C 163.467 64.655,175.515 92.365,176.273 94.074 C 176.493 94.569,176.883 95.446,177.140 96.024 C 177.397 96.602,179.248 100.855,181.254 105.476 C 186.945 118.586,192.759 131.944,195.490 138.185 C 196.862 141.320,201.795 152.663,206.452 163.391 C 211.109 174.119,216.539 186.609,218.519 191.148 C 220.499 195.686,223.671 202.978,225.567 207.352 C 230.422 218.549,232.848 224.114,233.481 225.506 C 233.781 226.167,234.691 228.260,235.503 230.158 C 236.314 232.056,239.712 239.887,243.055 247.562 C 246.397 255.236,250.481 264.621,252.131 268.417 C 255.049 275.130,258.915 284.002,259.715 285.821 C 259.933 286.317,260.988 288.747,262.059 291.223 C 263.130 293.698,264.416 296.669,264.917 297.824 L 265.827 299.925 332.913 300.001 L 400.000 300.076 400.000 150.113 L 400.000 0.150 200.000 0.028 L -0.000 -0.093 0.075 150.066 M97.523 46.503 C 93.987 47.405,90.333 51.076,89.898 54.164 C 89.732 55.342,89.736 55.338,90.140 53.957 C 92.326 46.477,103.090 43.917,109.077 49.453 L 110.277 50.563 109.227 49.410 C 106.879 46.833,101.484 45.493,97.523 46.503 M307.684 47.284 C 322.039 50.958,326.020 68.185,314.511 76.823 C 303.319 85.222,286.640 79.032,284.706 65.763 C 283.002 54.072,295.364 44.130,307.684 47.284 M112.037 54.933 C 113.951 59.296,117.168 66.691,122.926 79.970 C 126.832 88.977,127.312 90.042,127.421 89.933 C 127.510 89.844,125.491 85.084,120.778 74.269 C 119.340 70.968,117.315 66.309,116.279 63.916 C 112.368 54.885,110.691 51.157,110.419 50.884 C 110.264 50.729,110.992 52.551,112.037 54.933 M89.571 57.314 C 89.685 59.129,90.242 61.396,90.509 61.129 C 90.573 61.065,90.484 60.607,90.311 60.110 C 90.138 59.614,89.873 58.343,89.722 57.286 L 89.448 55.364 89.571 57.314 M90.737 61.815 C 90.982 62.710,92.511 66.029,92.625 65.915 C 92.689 65.850,92.263 64.800,91.678 63.582 C 91.092 62.363,90.669 61.568,90.737 61.815 M92.744 66.467 C 92.744 66.632,92.937 67.104,93.173 67.517 C 93.409 67.929,93.602 68.132,93.602 67.967 C 93.602 67.802,93.409 67.329,93.173 66.917 C 92.937 66.504,92.744 66.302,92.744 66.467 M93.738 68.717 C 93.983 69.612,95.512 72.930,95.626 72.816 C 95.690 72.752,95.264 71.702,94.678 70.483 C 94.093 69.264,93.670 68.470,93.738 68.717 M95.816 73.518 C 95.891 73.766,96.928 76.197,98.120 78.920 C 102.825 89.672,105.293 95.347,105.949 96.924 C 106.570 98.419,107.723 100.405,107.342 99.325 C 106.487 96.902,95.328 71.917,95.816 73.518 M127.555 90.360 C 127.528 90.578,129.940 96.101,130.160 96.324 C 130.241 96.407,130.208 96.153,130.087 95.761 C 129.807 94.848,127.585 90.111,127.555 90.360 M130.643 97.645 C 131.164 99.089,133.335 103.824,133.432 103.727 C 133.550 103.609,130.882 97.469,130.606 97.224 C 130.513 97.142,130.530 97.331,130.643 97.645 M107.427 100.046 C 107.427 100.408,113.219 113.438,113.330 113.326 C 113.430 113.227,107.804 100.202,107.553 99.951 C 107.484 99.882,107.427 99.924,107.427 100.046 M133.580 104.276 C 133.572 104.679,135.580 108.859,135.597 108.477 C 135.605 108.312,135.155 107.232,134.598 106.077 C 134.041 104.921,133.583 104.111,133.580 104.276 M136.353 110.728 C 136.604 111.623,138.430 115.533,138.544 115.420 C 138.608 115.355,138.113 114.172,137.444 112.790 C 136.775 111.408,136.284 110.480,136.353 110.728 M113.539 114.149 C 114.056 115.582,116.230 120.329,116.326 120.233 C 116.450 120.109,113.813 114.002,113.525 113.748 C 113.419 113.655,113.425 113.835,113.539 114.149 M138.708 116.129 C 139.445 118.089,141.131 121.834,141.232 121.734 C 141.370 121.595,139.054 116.135,138.738 115.855 C 138.629 115.758,138.615 115.881,138.708 116.129 M116.442 120.703 C 116.423 121.025,118.284 125.226,118.603 125.581 C 118.751 125.746,118.591 125.162,118.246 124.283 C 117.556 122.522,116.463 120.353,116.442 120.703 M141.407 122.431 C 141.979 123.970,144.158 128.711,144.251 128.617 C 144.377 128.491,141.723 122.405,141.429 122.147 C 141.325 122.055,141.315 122.183,141.407 122.431 M118.830 126.171 C 118.830 126.571,121.298 132.065,121.422 131.941 C 121.524 131.839,119.219 126.373,118.940 126.057 C 118.879 125.988,118.830 126.039,118.830 126.171 M145.307 131.433 C 145.807 132.781,147.136 135.634,147.224 135.546 C 147.361 135.410,145.703 131.493,145.387 131.207 C 145.252 131.083,145.216 131.185,145.307 131.433 M121.556 132.371 C 121.542 132.474,121.883 133.352,122.313 134.321 C 122.744 135.291,123.220 136.407,123.372 136.801 C 123.524 137.195,123.717 137.448,123.802 137.363 C 123.887 137.278,123.423 136.078,122.770 134.696 C 122.116 133.314,121.570 132.268,121.556 132.371 M307.305 133.078 C 310.415 133.970,312.975 135.852,314.420 138.309 L 315.229 139.685 315.307 203.539 L 315.384 267.393 314.743 268.883 C 310.921 277.767,293.872 277.339,290.812 268.282 C 290.118 266.230,290.338 140.676,291.037 139.095 C 293.321 133.932,300.727 131.193,307.305 133.078 M147.387 136.191 C 148.098 138.023,149.882 141.891,149.973 141.800 C 150.116 141.657,147.634 135.934,147.429 135.934 C 147.351 135.934,147.332 136.050,147.387 136.191 M123.952 137.884 C 123.952 138.050,124.145 138.522,124.381 138.935 C 124.617 139.347,124.810 139.550,124.810 139.385 C 124.810 139.220,124.617 138.747,124.381 138.335 C 124.145 137.922,123.952 137.719,123.952 137.884 M124.831 139.937 C 124.831 140.295,129.716 151.254,129.826 151.144 C 129.928 151.043,125.213 140.122,124.955 139.860 C 124.887 139.791,124.831 139.826,124.831 139.937 M151.315 145.236 C 151.907 146.849,156.148 156.330,156.237 156.241 C 156.298 156.180,155.527 154.253,154.523 151.959 C 153.520 149.664,152.485 147.247,152.224 146.587 C 151.775 145.456,150.939 144.213,151.315 145.236 M129.954 151.688 C 129.954 151.853,130.147 152.326,130.383 152.738 C 130.618 153.151,130.811 153.353,130.811 153.188 C 130.811 153.023,130.618 152.551,130.383 152.138 C 130.147 151.725,129.954 151.523,129.954 151.688 M130.954 154.089 C 131.491 155.573,136.040 165.636,136.132 165.543 C 136.251 165.425,131.196 153.890,130.920 153.648 C 130.819 153.560,130.835 153.758,130.954 154.089 M156.453 156.939 C 156.699 157.834,158.227 161.153,158.341 161.038 C 158.406 160.974,157.979 159.924,157.394 158.705 C 156.809 157.486,156.385 156.692,156.453 156.939 M158.440 161.487 C 158.440 161.713,160.699 166.946,161.082 167.606 C 161.765 168.783,161.410 167.759,160.085 164.729 C 158.842 161.887,158.440 161.094,158.440 161.487 M136.234 166.043 C 136.234 166.395,141.118 177.362,141.226 177.253 C 141.331 177.149,136.640 166.247,136.377 165.984 C 136.298 165.906,136.234 165.932,136.234 166.043 M161.531 168.717 C 162.817 171.838,163.960 174.325,164.061 174.224 C 164.208 174.077,161.726 168.342,161.515 168.342 C 161.439 168.342,161.446 168.511,161.531 168.717 M164.459 175.313 C 164.430 175.664,167.205 181.882,167.334 181.754 C 167.447 181.641,166.639 179.705,165.181 176.594 C 164.794 175.769,164.469 175.192,164.459 175.313 M141.455 178.095 C 142.003 179.618,145.033 186.350,145.128 186.254 C 145.255 186.128,141.730 177.928,141.438 177.670 C 141.329 177.574,141.337 177.764,141.455 178.095 M167.460 182.212 C 167.450 182.331,167.756 183.141,168.140 184.012 C 168.524 184.884,169.089 186.168,169.395 186.866 C 169.702 187.565,170.006 188.084,170.070 188.020 C 170.134 187.956,169.837 187.114,169.410 186.150 C 168.234 183.492,167.481 181.971,167.460 182.212 M145.262 186.683 C 145.248 186.785,145.700 187.865,146.267 189.083 C 146.834 190.301,147.301 191.163,147.306 190.998 C 147.315 190.653,145.301 186.401,145.262 186.683 M170.152 188.489 C 170.147 188.594,170.827 190.215,171.664 192.090 C 172.500 193.965,173.596 196.485,174.099 197.690 C 174.601 198.895,175.072 199.822,175.144 199.750 C 175.216 199.678,174.248 197.284,172.994 194.430 C 170.746 189.316,170.170 188.111,170.152 188.489 M147.637 192.175 C 147.637 192.566,150.121 198.066,150.243 197.944 C 150.359 197.828,148.072 192.383,147.788 192.099 C 147.705 192.016,147.637 192.050,147.637 192.175 M150.436 198.650 C 150.801 199.793,155.240 209.751,155.340 209.651 C 155.467 209.524,151.215 199.648,150.653 198.767 C 150.455 198.455,150.357 198.402,150.436 198.650 M176.255 202.551 C 176.480 203.405,178.331 207.365,178.451 207.246 C 178.517 207.180,178.023 205.995,177.354 204.613 C 176.685 203.231,176.190 202.303,176.255 202.551 M179.169 209.225 C 179.132 209.565,181.015 213.683,181.148 213.551 C 181.212 213.487,180.798 212.437,180.229 211.218 C 179.660 210.000,179.183 209.102,179.169 209.225 M155.508 210.353 C 156.034 211.787,158.548 217.246,158.640 217.153 C 158.770 217.024,155.855 210.358,155.550 210.087 C 155.436 209.985,155.417 210.105,155.508 210.353 M181.268 213.991 C 181.242 214.209,183.654 219.732,183.873 219.955 C 183.954 220.038,183.922 219.784,183.801 219.392 C 183.520 218.479,181.298 213.742,181.268 213.991 M158.834 217.935 C 159.359 219.394,164.846 231.653,164.936 231.564 C 165.056 231.443,159.114 217.818,158.833 217.571 C 158.729 217.479,158.730 217.643,158.834 217.935 M184.356 221.276 C 184.873 222.709,187.048 227.455,187.144 227.360 C 187.268 227.236,184.631 221.128,184.343 220.875 C 184.237 220.782,184.243 220.962,184.356 221.276 M187.293 227.907 C 187.286 228.310,189.293 232.490,189.311 232.108 C 189.318 231.943,188.868 230.863,188.311 229.707 C 187.754 228.552,187.296 227.742,187.293 227.907 M165.146 232.365 C 165.683 233.856,169.943 243.360,170.033 243.270 C 170.155 243.149,165.417 232.223,165.136 231.976 C 165.031 231.883,165.036 232.059,165.146 232.365 M190.362 234.959 C 190.607 235.853,192.136 239.172,192.250 239.058 C 192.314 238.994,191.888 237.944,191.302 236.725 C 190.717 235.506,190.294 234.711,190.362 234.959 M192.458 239.760 C 192.798 240.912,194.836 245.474,194.956 245.354 C 195.031 245.279,194.743 244.429,194.316 243.464 C 193.369 241.323,192.276 239.145,192.458 239.760 M64.002 240.282 C 64.957 240.342,66.442 240.341,67.303 240.281 C 68.163 240.220,67.382 240.172,65.566 240.172 C 63.751 240.173,63.047 240.222,64.002 240.282 M59.313 240.983 C 54.032 242.800,47.669 249.191,47.719 252.628 C 47.723 252.895,48.044 252.341,48.432 251.397 C 50.592 246.146,54.559 242.697,60.465 240.939 C 61.455 240.644,61.995 240.398,61.665 240.392 C 61.335 240.385,60.277 240.651,59.313 240.983 M70.753 240.942 C 80.013 243.590,85.533 252.450,83.295 261.074 C 82.723 263.280,82.956 263.376,83.590 261.196 C 85.522 254.548,82.054 246.567,75.554 242.702 C 73.605 241.543,70.389 240.338,69.366 240.381 C 69.091 240.393,69.716 240.646,70.753 240.942 M170.265 243.961 C 170.552 244.957,172.014 248.331,172.278 248.605 C 172.433 248.767,172.413 248.497,172.234 248.005 C 171.848 246.945,170.078 243.309,170.265 243.961 M195.649 247.089 C 195.649 247.490,198.135 252.978,198.260 252.853 C 198.326 252.787,197.815 251.468,197.124 249.922 C 195.847 247.066,195.649 246.684,195.649 247.089 M173.257 250.863 C 173.503 251.757,175.032 255.076,175.146 254.962 C 175.210 254.898,174.784 253.848,174.198 252.629 C 173.613 251.410,173.190 250.615,173.257 250.863 M47.217 257.164 C 47.217 258.567,47.268 259.141,47.331 258.440 C 47.395 257.738,47.395 256.590,47.331 255.889 C 47.268 255.188,47.217 255.761,47.217 257.164 M198.977 254.914 C 198.981 255.079,199.519 256.294,200.171 257.614 C 201.440 260.184,201.517 260.130,200.385 257.464 C 199.599 255.612,198.964 254.462,198.977 254.914 M175.265 255.514 C 175.265 255.679,175.458 256.152,175.694 256.564 C 175.930 256.977,176.123 257.179,176.123 257.014 C 176.123 256.849,175.930 256.377,175.694 255.964 C 175.458 255.551,175.265 255.349,175.265 255.514 M176.158 257.543 C 176.135 257.924,177.412 260.498,177.554 260.356 C 177.626 260.283,177.345 259.569,176.929 258.769 C 176.513 257.969,176.166 257.417,176.158 257.543 M177.808 261.440 C 177.920 261.812,178.135 262.247,178.286 262.409 C 178.437 262.570,178.409 262.266,178.223 261.734 C 177.843 260.644,177.492 260.396,177.808 261.440 M47.738 261.449 C 47.634 263.600,52.271 269.825,54.914 271.082 C 55.932 271.566,55.942 271.565,55.231 271.050 C 51.473 268.324,49.181 265.347,48.003 261.665 C 47.841 261.156,47.755 261.087,47.738 261.449 M201.883 264.123 C 201.812 265.494,201.660 266.887,201.547 267.217 C 201.434 267.547,201.551 267.367,201.807 266.816 C 202.237 265.894,202.500 262.115,202.158 261.773 C 202.079 261.694,201.955 262.751,201.883 264.123 M178.692 263.436 C 179.009 264.466,181.192 269.167,181.352 269.167 C 181.501 269.167,178.880 263.106,178.628 262.866 C 178.541 262.783,178.570 263.040,178.692 263.436 M82.098 264.295 C 79.533 269.715,73.705 273.300,66.367 273.969 L 63.466 274.234 66.508 274.116 C 71.591 273.918,75.574 272.208,79.078 268.717 C 80.928 266.874,83.111 263.656,82.754 263.299 C 82.685 263.230,82.389 263.678,82.098 264.295 M201.050 268.193 C 201.050 269.777,196.184 273.133,193.154 273.639 C 191.735 273.875,191.697 273.901,192.720 273.933 C 195.591 274.023,202.451 269.268,201.223 268.039 C 201.128 267.945,201.050 268.014,201.050 268.193 M182.029 270.121 C 183.579 272.134,186.326 273.640,188.747 273.805 C 189.490 273.855,189.760 273.840,189.347 273.771 C 187.103 273.397,184.645 272.240,183.071 270.818 C 182.158 269.992,181.689 269.679,182.029 270.121 M56.267 271.872 C 56.564 272.354,60.491 273.715,61.945 273.841 L 63.466 273.972 61.625 273.546 C 60.613 273.312,58.961 272.787,57.954 272.381 C 56.948 271.974,56.188 271.745,56.267 271.872 " stroke="none" fill="#5c7ba3" fill-rule="evenodd"></path><path id="path1" d="M298.050 0.225 C 315.998 0.268,345.368 0.268,363.316 0.225 C 381.264 0.182,366.579 0.147,330.683 0.147 C 294.786 0.147,280.101 0.182,298.050 0.225 M97.374 46.916 C 91.978 48.701,88.991 53.349,89.944 58.474 C 90.162 59.647,93.530 67.705,99.640 81.673 C 111.071 107.804,116.789 120.910,118.144 124.081 C 118.708 125.401,120.298 129.047,121.677 132.183 C 124.843 139.381,141.361 177.193,143.962 183.196 C 145.035 185.671,146.448 188.912,147.102 190.398 C 147.757 191.883,148.936 194.584,149.724 196.399 C 153.110 204.205,175.340 255.163,176.887 258.665 C 177.434 259.902,178.721 262.840,179.748 265.192 C 182.757 272.091,186.729 274.647,192.894 273.654 C 200.969 272.354,203.881 266.119,200.273 257.855 C 199.351 255.742,197.921 252.461,197.095 250.563 C 196.269 248.665,195.201 246.262,194.721 245.223 C 194.241 244.184,193.848 243.279,193.848 243.211 C 193.848 243.144,192.212 239.335,190.212 234.748 C 183.080 218.387,180.544 212.558,179.141 209.302 C 175.691 201.297,174.902 199.476,173.289 195.799 C 172.349 193.653,171.173 190.953,170.678 189.797 C 170.182 188.642,169.503 187.089,169.168 186.347 C 168.833 185.605,168.125 183.984,167.593 182.746 C 166.397 179.957,161.747 169.234,158.354 161.440 C 156.953 158.222,154.253 152.011,152.355 147.637 C 150.456 143.263,147.522 136.512,145.835 132.633 C 144.148 128.755,141.716 123.151,140.431 120.180 C 139.145 117.209,136.917 112.078,135.479 108.777 C 134.042 105.476,131.515 99.670,129.864 95.874 C 128.213 92.078,125.715 86.339,124.314 83.121 C 122.912 79.902,120.709 74.839,119.420 71.868 C 108.988 47.837,109.710 49.158,106.114 47.526 C 103.930 46.535,99.467 46.223,97.374 46.916 M297.374 47.514 C 283.432 51.666,280.041 68.787,291.537 76.990 C 304.591 86.305,322.966 76.693,321.064 61.544 C 319.761 51.168,308.166 44.301,297.374 47.514 M60.465 240.939 C 43.534 245.980,42.913 267.686,59.550 272.943 C 75.615 278.019,89.592 262.411,81.317 248.635 C 77.467 242.227,67.945 238.712,60.465 240.939 " stroke="none" fill="#f3f3f3" fill-rule="evenodd"></path><path id="path2" d="M0.300 150.188 L 0.300 300.075 133.087 300.075 L 265.875 300.075 265.388 298.950 C 265.121 298.331,264.532 296.947,264.079 295.874 C 263.393 294.249,261.915 290.844,259.714 285.821 C 258.619 283.325,254.797 274.551,252.131 268.417 C 250.481 264.621,246.397 255.236,243.055 247.562 C 239.712 239.887,236.314 232.056,235.503 230.158 C 234.691 228.260,233.781 226.167,233.481 225.506 C 232.848 224.114,230.422 218.549,225.567 207.352 C 223.671 202.978,220.499 195.686,218.519 191.148 C 216.539 186.609,211.109 174.119,206.452 163.391 C 201.795 152.663,196.862 141.320,195.490 138.185 C 192.759 131.944,186.945 118.586,181.254 105.476 C 177.366 96.519,177.076 95.855,176.345 94.224 C 175.682 92.744,163.861 65.568,161.595 60.315 C 158.912 54.092,146.864 26.402,143.904 19.655 C 142.529 16.519,140.149 11.050,138.616 7.502 C 137.083 3.953,135.701 0.881,135.545 0.675 C 135.319 0.377,121.413 0.300,67.780 0.300 L 0.300 0.300 0.300 150.188 M106.413 47.348 C 109.350 48.840,110.255 50.137,113.412 57.371 C 114.946 60.888,117.381 66.467,118.821 69.767 C 120.262 73.068,122.490 78.200,123.772 81.170 C 126.278 86.977,128.621 92.364,132.061 100.225 C 133.252 102.948,134.863 106.662,135.640 108.477 C 136.417 110.293,138.437 114.951,140.129 118.830 C 141.820 122.708,143.578 126.772,144.034 127.860 C 144.490 128.948,145.074 130.298,145.331 130.860 C 146.615 133.666,149.548 140.411,149.887 141.335 C 150.099 141.913,150.676 143.263,151.170 144.336 C 151.664 145.409,152.744 147.839,153.569 149.737 C 154.394 151.635,157.111 157.877,159.605 163.607 C 162.100 169.337,164.141 174.091,164.141 174.171 C 164.141 174.251,164.536 175.167,165.019 176.206 C 165.501 177.244,166.597 179.715,167.453 181.695 C 168.310 183.676,169.188 185.701,169.404 186.197 C 170.892 189.607,175.342 199.859,176.958 203.601 C 178.027 206.077,180.049 210.735,181.450 213.953 C 182.851 217.172,184.614 221.223,185.368 222.956 C 186.122 224.689,187.326 227.424,188.043 229.034 C 188.761 230.644,189.347 232.019,189.347 232.088 C 189.347 232.186,192.439 239.307,194.438 243.811 C 196.910 249.384,198.350 252.705,198.350 252.837 C 198.350 252.927,198.677 253.701,199.076 254.557 C 202.426 261.735,202.935 264.119,201.757 267.107 C 199.889 271.845,196.053 274.148,190.446 273.899 C 183.978 273.613,182.309 272.041,178.252 262.416 C 178.112 262.086,177.725 261.208,177.390 260.465 C 177.055 259.722,175.819 256.887,174.644 254.164 C 173.468 251.440,172.259 248.672,171.956 248.012 C 171.652 247.352,170.025 243.638,168.340 239.760 C 166.654 235.881,163.885 229.535,162.187 225.656 C 160.489 221.778,156.511 212.663,153.349 205.401 C 150.186 198.140,146.268 189.160,144.643 185.446 C 143.017 181.733,140.511 175.994,139.074 172.693 C 137.636 169.392,135.278 163.991,133.832 160.690 C 132.386 157.389,129.770 151.415,128.017 147.414 C 126.265 143.413,124.831 140.081,124.831 140.009 C 124.831 139.938,124.378 138.890,123.825 137.681 C 123.271 136.473,121.908 133.391,120.797 130.833 C 119.685 128.275,118.498 125.574,118.160 124.831 C 117.821 124.089,117.174 122.603,116.721 121.530 C 115.976 119.767,114.043 115.316,109.096 103.976 C 108.160 101.830,107.142 99.535,106.833 98.875 C 106.525 98.215,105.603 96.122,104.785 94.224 C 103.967 92.326,102.151 88.140,100.749 84.921 C 88.440 56.673,89.078 58.404,89.701 54.918 C 90.962 47.860,99.662 43.920,106.413 47.348 M300.675 132.643 C 296.097 133.355,292.516 135.752,291.037 139.095 C 290.338 140.676,290.118 266.230,290.812 268.282 C 293.872 277.339,310.921 277.767,314.743 268.883 L 315.384 267.393 315.307 203.539 L 315.229 139.685 314.420 138.309 C 311.969 134.141,306.237 131.777,300.675 132.643 M70.664 240.659 C 84.060 244.085,88.568 260.075,78.700 269.157 C 67.032 279.896,47.176 272.353,47.127 257.164 C 47.091 245.838,58.802 237.625,70.664 240.659 " stroke="none" fill="#1c242b" fill-rule="evenodd"></path></g></svg>