<svg id="svg2" xmlns="http://www.w3.org/2000/svg" xmlns:xlink="http://www.w3.org/1999/xlink" viewBox="0 0 880.4 563.12"><defs><style>.cls-1{fill:none;}.cls-2{clip-path:url(#clip-path);}.cls-3{fill:#e71838;}.cls-4{fill:#fff;}.cls-5{fill:#bdbcbc;}.cls-6{fill:#1c1412;}.cls-7{fill:url(#linear-gradient);}.cls-8{fill:url(#linear-gradient-2);}.cls-9{fill:url(#linear-gradient-3);}.cls-10{fill:url(#linear-gradient-4);}.cls-11{fill:url(#linear-gradient-5);}.cls-12{fill:url(#linear-gradient-6);}.cls-13{fill:url(#linear-gradient-7);}.cls-14{fill:url(#linear-gradient-8);}.cls-15{fill:url(#linear-gradient-9);}.cls-16{fill:url(#linear-gradient-10);}.cls-17{fill:url(#linear-gradient-11);}.cls-18{fill:url(#linear-gradient-12);}.cls-19{fill:url(#linear-gradient-13);}.cls-20{fill:url(#linear-gradient-14);}.cls-21{fill:url(#linear-gradient-15);}.cls-22{fill:url(#linear-gradient-16);}.cls-23{fill:url(#linear-gradient-17);}.cls-24{fill:#e9e9e9;}</style><clipPath id="clip-path" transform="translate(-121.37 -61.04)"><rect class="cls-1" width="1122.52" height="793.71"/></clipPath><linearGradient id="linear-gradient" x1="-397.59" y1="936.45" x2="-396.59" y2="936.45" gradientTransform="translate(236880.75 125908.33) rotate(95) scale(263.16)" gradientUnits="userSpaceOnUse"><stop offset="0" stop-color="#e71838"/><stop offset="0.5" stop-color="#f2611e"/><stop offset="1" stop-color="#f7931b"/></linearGradient><linearGradient id="linear-gradient-2" x1="-397.6" y1="936.48" x2="-396.6" y2="936.48" gradientTransform="matrix(-23.43, 267.86, -267.86, -23.43, 242199.44, 128640.07)" xlink:href="#linear-gradient"/><linearGradient id="linear-gradient-3" x1="-396.53" y1="938.52" x2="-395.53" y2="938.52" gradientTransform="translate(107736.08 -254411.2) scale(271.37)" gradientUnits="userSpaceOnUse"><stop offset="0" stop-color="#f47718"/><stop offset="0.47" stop-color="#f47718"/><stop offset="1" stop-color="#f0eb1f"/></linearGradient><linearGradient id="linear-gradient-4" x1="-396.53" y1="938.52" x2="-395.53" y2="938.52" gradientTransform="translate(107736.08 -254353.37) scale(271.37)" xlink:href="#linear-gradient-3"/><linearGradient id="linear-gradient-5" x1="-396.53" y1="938.52" x2="-395.53" y2="938.52" gradientTransform="translate(107736.08 -254459.92) scale(271.37)" xlink:href="#linear-gradient-3"/><linearGradient id="linear-gradient-6" x1="-396.53" y1="938.52" x2="-395.53" y2="938.52" gradientTransform="translate(107736.08 -254425.46) scale(271.37)" xlink:href="#linear-gradient-3"/><linearGradient id="linear-gradient-7" x1="-396.53" y1="938.52" x2="-395.53" y2="938.52" gradientTransform="translate(107736.08 -254395.39) scale(271.37)" xlink:href="#linear-gradient-3"/><linearGradient id="linear-gradient-8" x1="-396.53" y1="938.52" x2="-395.53" y2="938.52" gradientTransform="translate(107736.08 -254375.55) scale(271.37)" xlink:href="#linear-gradient-3"/><linearGradient id="linear-gradient-9" x1="-396.53" y1="938.52" x2="-395.53" y2="938.52" gradientTransform="translate(107736.08 -254331.47) scale(271.37)" xlink:href="#linear-gradient-3"/><linearGradient id="linear-gradient-10" x1="-396.53" y1="938.52" x2="-395.53" y2="938.52" gradientTransform="translate(107736.08 -254304.04) scale(271.37)" xlink:href="#linear-gradient-3"/><linearGradient id="linear-gradient-11" x1="-399.73" y1="937.38" x2="-398.73" y2="937.38" gradientTransform="translate(-91065.66 216083.36) rotate(180) scale(230.22)" xlink:href="#linear-gradient-3"/><linearGradient id="linear-gradient-12" x1="-399.73" y1="937.38" x2="-398.73" y2="937.38" gradientTransform="translate(-91065.66 216141.19) rotate(180) scale(230.22)" xlink:href="#linear-gradient-3"/><linearGradient id="linear-gradient-13" x1="-399.73" y1="937.38" x2="-398.73" y2="937.38" gradientTransform="translate(-91065.66 216034.64) rotate(180) scale(230.22)" xlink:href="#linear-gradient-3"/><linearGradient id="linear-gradient-14" x1="-399.73" y1="937.38" x2="-398.73" y2="937.38" gradientTransform="translate(-91065.66 216070.08) rotate(180) scale(230.22)" xlink:href="#linear-gradient-3"/><linearGradient id="linear-gradient-15" x1="-399.73" y1="937.38" x2="-398.73" y2="937.38" gradientTransform="translate(-91065.66 216115.5) rotate(180) scale(230.22)" xlink:href="#linear-gradient-3"/><linearGradient id="linear-gradient-16" x1="-399.73" y1="937.38" x2="-398.73" y2="937.38" gradientTransform="translate(-91065.66 216162.86) rotate(180) scale(230.22)" xlink:href="#linear-gradient-3"/><linearGradient id="linear-gradient-17" x1="-399.73" y1="937.38" x2="-398.73" y2="937.38" gradientTransform="translate(-91065.66 216194.1) rotate(180) scale(230.22)" xlink:href="#linear-gradient-3"/></defs><g id="g10"><g id="g162"><g class="cls-2"><g id="g164"><g id="g170"><path id="path172" class="cls-3" d="M561.59,534.67c-106.08,0-192.07-86-192.07-192.07s86-192.06,192.07-192.06,192.06,86,192.06,192.06-86,192.07-192.06,192.07m0-473.63C406.09,61,280,187.1,280,342.6S406.09,624.16,561.59,624.16s281.56-126,281.56-281.56S717.09,61,561.59,61" transform="translate(-121.37 -61.04)"/></g><g id="g174"><path id="path176" class="cls-4" d="M411.79,518.14a4.06,4.06,0,0,0,1.16-3.25,5.4,5.4,0,0,0-2.07-3.2l-1.51-1.29-5.61,6.53,1.8,1.53q3.44,2.92,6.23-.32m8.69,6.93a11.36,11.36,0,0,1-5.51,3.64,11.84,11.84,0,0,1-6.72-.09,18.84,18.84,0,0,1-6.93-3.91l-2.45-2.09-7.29,8.5-8-6.8,22.7-26.45,10.88,9.27q5.61,4.78,6.39,9.12t-3.07,8.81" transform="translate(-121.37 -61.04)"/></g><g id="g178"><path id="path180" class="cls-4" d="M436.1,545.17a8.48,8.48,0,0,0-1-1.32,7.51,7.51,0,0,0-1.25-1.13q-4.26-2.94-7.62,2l-6.13,9.08-8.61-5.94L425.57,527l8.61,5.94-2.48,3.68.08,0a7.84,7.84,0,0,1,4.28-1.46,6.86,6.86,0,0,1,4.09,1.31,3.56,3.56,0,0,1,1.07,1.09Z" transform="translate(-121.37 -61.04)"/></g><g id="g182"><path id="path184" class="cls-4" d="M453.09,557.73q2.34-4.49-1-6.32t-5.81,2.86c-1.72,3.3-1.46,5.58.81,6.82s4.2.09,6-3.36m9.07,4.92q-2.91,5.57-7.84,6.94c-3.3.92-6.9.3-10.83-1.85s-6.39-4.84-7.48-8.09-.68-6.71,1.22-10.34a12.77,12.77,0,0,1,4.7-5.24,11,11,0,0,1,6.42-1.56,18.45,18.45,0,0,1,13.09,7.27,12.06,12.06,0,0,1,2.2,6.34,12.54,12.54,0,0,1-1.48,6.53" transform="translate(-121.37 -61.04)"/></g><g id="g186"><path id="path188" class="cls-4" d="M500.29,588.13a20.54,20.54,0,0,1-6,.18,31.07,31.07,0,0,1-7.13-1.41q-8.44-2.8-11.72-8.84t-.91-14.18a19.93,19.93,0,0,1,5.13-8.93,15.35,15.35,0,0,1,8.39-4.27,21.85,21.85,0,0,1,10.56,1.09,37.51,37.51,0,0,1,8.56,4.23l-2.62,9a19.85,19.85,0,0,0-3.82-2.91,24,24,0,0,0-4.33-1.9,8.38,8.38,0,0,0-7.09.46q-3.1,1.77-4.4,6.26a11,11,0,0,0,0,7.36,7.42,7.42,0,0,0,4.84,4.25,11.24,11.24,0,0,0,2.49.62l1.43-4.91-2.3-.77,2.27-7.83,12,4Z" transform="translate(-121.37 -61.04)"/></g><g id="g190"><path id="path192" class="cls-4" d="M518,584.3a2.59,2.59,0,0,0,.55,1.77,2.24,2.24,0,0,0,1.69.78,2.83,2.83,0,0,0,2.51-1.08,5,5,0,0,0,1-3.14l0-1-3.3.28c-1.64.19-2.49,1-2.54,2.36m5.45,9.08.13-3.9h-.1a7.25,7.25,0,0,1-7.24,4.06,6.77,6.77,0,0,1-5.1-2.49,8.73,8.73,0,0,1-1.67-5.87c.17-5,3.08-7.77,8.73-8.19l5.81-.45a2.6,2.6,0,0,0-1-2.12,4.54,4.54,0,0,0-2.73-1,16.61,16.61,0,0,0-8.34,1.91l.23-6.92a20.09,20.09,0,0,1,4.79-1.17,24.64,24.64,0,0,1,4.88-.25q5.94.39,8.52,3.35t2.37,9.49L532.25,594Z" transform="translate(-121.37 -61.04)"/></g><g id="g194"><path id="path196" class="cls-4" d="M569.91,596.72l.18-14.79a5.11,5.11,0,0,0-.57-2.78,2.18,2.18,0,0,0-2-.94,2.38,2.38,0,0,0-2.12,1.08,5.53,5.53,0,0,0-.79,3.08l-.17,14.27-9.72-.14.18-14.55q0-3.93-2.39-4a2.51,2.51,0,0,0-2.25,1.11,5.86,5.86,0,0,0-.8,3.26l-.17,14.07-9.72-.15.32-25.67,9.72.15,0,4.06h.09a7.83,7.83,0,0,1,1.77-2.17,10.44,10.44,0,0,1,2.72-1.77,8.42,8.42,0,0,1,7.45.5,8.3,8.3,0,0,1,2.8,3.45,8.68,8.68,0,0,1,3.32-3.27,9.1,9.1,0,0,1,4.58-1.1,6.6,6.6,0,0,1,5.6,2.72q1.94,2.66,1.87,7.62l-.2,16.07Z" transform="translate(-121.37 -61.04)"/></g><g id="g198"><path id="path200" class="cls-4" d="M601.17,577.58q-.57-4.27-3.46-3.85a2.52,2.52,0,0,0-1.88,1.48,6.26,6.26,0,0,0-.54,3.25Zm-5.12,6.26a3.43,3.43,0,0,0,2.06,2.25,7.59,7.59,0,0,0,4,.32,15.8,15.8,0,0,0,6.25-2.34l.87,6.53a22.47,22.47,0,0,1-8.38,2.78q-6.12.9-10-1.9t-4.61-8.6a16.19,16.19,0,0,1,.56-7.26,11.58,11.58,0,0,1,3.8-5.44,12.82,12.82,0,0,1,6.23-2.69,12.22,12.22,0,0,1,6.41.57,9.62,9.62,0,0,1,4.47,3.63,14.19,14.19,0,0,1,2.18,6.13l.51,3.87Z" transform="translate(-121.37 -61.04)"/></g><g id="g202"><path id="path204" class="cls-4" d="M636.82,556.84,645.26,583l-10.36,3.34-8.44-26.15-9.56,3.09-2.61-8.07,29.61-9.55,2.61,8.07Z" transform="translate(-121.37 -61.04)"/></g><g id="g206"><path id="path208" class="cls-4" d="M665,557.37c-1.19-2.63-2.69-3.51-4.52-2.63a2.6,2.6,0,0,0-1.44,2,6.05,6.05,0,0,0,.38,3.3Zm-3.3,7.62a3.39,3.39,0,0,0,2.68,1.52,7.9,7.9,0,0,0,4.09-.94,16.92,16.92,0,0,0,5.53-4.19l2.7,6a24.22,24.22,0,0,1-7.51,5.27q-5.79,2.76-10.38,1.25t-7-6.87a15.73,15.73,0,0,1-1.5-7.16,11.82,11.82,0,0,1,2.21-6.41,13.83,13.83,0,0,1,5.41-4.53,13.08,13.08,0,0,1,6.51-1.43,9.73,9.73,0,0,1,5.45,2.11,13.66,13.66,0,0,1,3.89,5.24l1.6,3.57Z" transform="translate(-121.37 -61.04)"/></g><g id="g210"><path id="path212" class="cls-4" d="M687.54,552.76a2.29,2.29,0,0,0,1.41,1,2.38,2.38,0,0,0,1.84-.43,3.18,3.18,0,0,0,1.53-2.39,4.65,4.65,0,0,0-.8-3.11l-.5-.78-2.61,2.25q-1.92,1.74-.87,3.41m9.45,3.76-2-3.13-.08.05a8,8,0,0,1-3.92,7.63,7,7,0,0,1-5.61,1.19,7.59,7.59,0,0,1-4.57-3.57q-3.84-6.06,2.94-11.79l4.64-3.92a2.32,2.32,0,0,0-1.94-1.07,4.85,4.85,0,0,0-2.82.91,18.89,18.89,0,0,0-6,6.63l-3.53-5.57a23.62,23.62,0,0,1,3.39-3.85,28.24,28.24,0,0,1,4-3.21q5.19-3.35,9-2.61c2.5.49,4.87,2.48,7.08,6l7.19,11.34Z" transform="translate(-121.37 -61.04)"/></g><g id="g214"><path id="path216" class="cls-4" d="M735.71,526l-9-10.74a4.46,4.46,0,0,0-2.17-1.6,2.33,2.33,0,0,0-2.12.66,2.59,2.59,0,0,0-1,2.23,4.81,4.81,0,0,0,1.29,2.76l8.7,10.36-7.69,6.57-8.88-10.56q-2.4-2.87-4.33-1.21a2.69,2.69,0,0,0-1.08,2.34,5.38,5.38,0,0,0,1.4,2.89l8.59,10.21-7.7,6.57L696,527.85l7.7-6.57,2.48,3,.07-.06a7.86,7.86,0,0,1,0-2.77,10.94,10.94,0,0,1,1-3.14,8.94,8.94,0,0,1,2.16-2.7,8.56,8.56,0,0,1,4-2,7.83,7.83,0,0,1,4.33.56,8.71,8.71,0,0,1,.57-4.63,10.16,10.16,0,0,1,2.91-3.94,7.1,7.1,0,0,1,6.07-1.89c2.11.39,4.17,1.78,6.19,4.19l9.81,11.67Z" transform="translate(-121.37 -61.04)"/></g><g id="g218"><path id="path220" class="cls-4" d="M455.19,139.67a10.55,10.55,0,0,1,1.35,6.29,11.47,11.47,0,0,1-2.59,6,22.71,22.71,0,0,1-6.3,5.19,25.39,25.39,0,0,1-9.46,3.42l-4.65-8.44a18.87,18.87,0,0,0,5.4-.15,14.06,14.06,0,0,0,4.7-1.62,5,5,0,0,0,2-1.9,2.14,2.14,0,0,0-.07-2.08,2.47,2.47,0,0,0-1.14-1.08,4.46,4.46,0,0,0-1.81-.34,25.11,25.11,0,0,0-3.79.44q-8.77,1.38-12.28-5a10.26,10.26,0,0,1-.65-9.08c1.22-3.07,3.66-5.7,7.35-7.87,1-.61,2-1.13,2.95-1.56s1.77-.79,2.55-1.08,1.93-.64,3.41-1l4.32,7.84a17.35,17.35,0,0,0-8.58,2.23,5.27,5.27,0,0,0-2.09,2,2.11,2.11,0,0,0,0,2.13,2.2,2.2,0,0,0,1.62,1.16,15.1,15.1,0,0,0,4-.18q5.7-.79,8.89.37a9.08,9.08,0,0,1,4.93,4.32" transform="translate(-121.37 -61.04)"/></g><g id="g222"><path id="path224" class="cls-4" d="M481.17,139.77l-12.75-10.65a15.68,15.68,0,0,1-1.78-1.87l-.11,0,6.66,16-9.55,4.17L450.1,115l9.55-4.18,6.44,15.44.11,0a20,20,0,0,1,0-2.68l.83-15.94,11.32-5L475.81,122l16.95,12.67Z" transform="translate(-121.37 -61.04)"/></g><g id="g226"><path id="path228" class="cls-4" d="M523.93,126.28a8.83,8.83,0,0,1-1.9,1.16,17.19,17.19,0,0,1-3.34,1.16,7.46,7.46,0,0,1-6.41-.89q-2.61-1.84-3.47-6.26l-1.94-10-3,.46,7.71-16.67,1,8.16,6.61-1.74,1.4,7.19L516,110l1.45,7.48q.63,3.29,2.92,2.71a6,6,0,0,0,2.16-1.11Z" transform="translate(-121.37 -61.04)"/></g><g id="g230"><path id="path232" class="cls-4" d="M542.77,109.63c-.29-3-1.4-4.33-3.33-4.09a2.44,2.44,0,0,0-1.9,1.46,6.59,6.59,0,0,0-.64,3.34Zm-5.27,6.29a3.53,3.53,0,0,0,2,2.39,7.08,7.08,0,0,0,4,.47,15.05,15.05,0,0,0,6.27-2.2l.67,6.78a21.54,21.54,0,0,1-8.39,2.58q-6.1.74-9.83-2.29t-4.32-9.06a17,17,0,0,1,.77-7.48,11.72,11.72,0,0,1,3.92-5.48,12.37,12.37,0,0,1,6.27-2.57,11.68,11.68,0,0,1,6.34.81,9.74,9.74,0,0,1,4.33,3.89,15.17,15.17,0,0,1,2,6.42l.4,4Z" transform="translate(-121.37 -61.04)"/></g><g id="g234"><path id="path236" class="cls-4" d="M557.07,125.09l-.5-36.25,8.59-.17.49,36.25Z" transform="translate(-121.37 -61.04)"/></g><g id="g238"><path id="path240" class="cls-4" d="M585.52,110.29q.32-4.55-2.46-4.81a2.23,2.23,0,0,0-2,1.06,6.68,6.68,0,0,0-1.15,3.2Zm-6,5.17a3.83,3.83,0,0,0,1.47,2.81,6.83,6.83,0,0,0,3.7,1.33,13.32,13.32,0,0,0,6.26-.87l-.48,6.92a19,19,0,0,1-8.33.79q-5.86-.56-8.88-4.39t-2.57-10a18.11,18.11,0,0,1,1.95-7.32A11.44,11.44,0,0,1,589.4,101a10.47,10.47,0,0,1,3.44,4.82,16.6,16.6,0,0,1,.8,6.84l-.28,4.1Z" transform="translate(-121.37 -61.04)"/></g><g id="g242"><path id="path244" class="cls-4" d="M615.58,130.16a8.11,8.11,0,0,1-3,.32,24.87,24.87,0,0,1-4.51-.64,13.37,13.37,0,0,1-6.05-3,12,12,0,0,1-3.51-5.45,14.12,14.12,0,0,1-.36-6.8,15.17,15.17,0,0,1,3-7,10.74,10.74,0,0,1,5.5-3.63,14.72,14.72,0,0,1,7.3,0,22.39,22.39,0,0,1,3.87,1.21,5.93,5.93,0,0,1,2.11,1.23l-1.47,8.1a6.63,6.63,0,0,0-1.82-1.53,7.64,7.64,0,0,0-2.34-1,4.88,4.88,0,0,0-6.57,4.28,5.78,5.78,0,0,0,.67,4.33,5.45,5.45,0,0,0,3.56,2.28,8.73,8.73,0,0,0,5-.31Z" transform="translate(-121.37 -61.04)"/></g><g id="g246"><path id="path248" class="cls-4" d="M638.38,124.14q1.47-4.83-1.86-6.07t-4.87,3.8q-1.62,5.32,1.75,6.59t5-4.32m9,3.32q-1.83,6-6.12,8.16t-10.15,0q-5.8-2.17-8-6.72a13.78,13.78,0,0,1-.43-10.4,13.06,13.06,0,0,1,3.51-6,10,10,0,0,1,5.62-2.63,14.46,14.46,0,0,1,6.93,1,15.09,15.09,0,0,1,6.09,4,12.18,12.18,0,0,1,3,5.89,13.51,13.51,0,0,1-.38,6.69" transform="translate(-121.37 -61.04)"/></g><g id="g250"><path id="path252" class="cls-4" d="M673.32,155.29l6.48-13a5.1,5.1,0,0,0,.68-2.76,2.46,2.46,0,0,0-1.33-1.85,2.26,2.26,0,0,0-2.32-.14,5,5,0,0,0-2,2.33l-6.25,12.54-8.5-5.17,6.37-12.78q1.73-3.47-.41-4.76a2.37,2.37,0,0,0-2.46-.19,5.39,5.39,0,0,0-2.09,2.48l-6.16,12.37-8.51-5.17,11.25-22.57,8.5,5.16-1.78,3.57.08,0a7.35,7.35,0,0,1,2.49-1,9.28,9.28,0,0,1,3.16-.15,7.93,7.93,0,0,1,3.16,1.13,8.65,8.65,0,0,1,3.19,3.17,9.14,9.14,0,0,1,1,4.51,7.63,7.63,0,0,1,4.33-1.17,9.08,9.08,0,0,1,4.51,1.4,7.48,7.48,0,0,1,3.77,5.31q.57,3.36-1.61,7.72l-7,14.13Z" transform="translate(-121.37 -61.04)"/></g><g id="g254"><path id="path256" class="cls-5" d="M557.54,487.26l-19.95-20,50.13-65,25.55-78.92-37.74-36.53H555.84l-47.17,142,12.57,58.43H365.06l-21.68-21.2,23.42-29.65c-13.83-3.68-35.09-9.35-46.38-12.5-18.79-5.24-38.7-21-46.31-36.76a71.13,71.13,0,0,1-6.47-19.23c-7.16-3.09-21.35-10.42-29.6-22.85a81.78,81.78,0,0,1-11.36-25.38,98.24,98.24,0,0,1-47.6-25.61,82.94,82.94,0,0,1-24.54-48.55c-5.91-3.86-17.26-13.3-25.44-32.41-11.1-26-7-43.7-6.85-44.44l2-8.35,7.84,3.53c.7.32,71,31.89,145.66,50.88,55,14,88.95,22.85,103.91,26.78l17.94-54H631.88l15.73,19.68-8.71,26.42a364.85,364.85,0,0,0,53.55-28.21c34.44-22.33,56.38-42.67,56.6-42.87l4.86-4.54,27.33,25.59-16.42,51.2c18.36-5,44.85-12.07,80-21,74.7-19,145.63-49.69,146.34-50l7.77-3.38,2,8.24c.17.74,4.24,18.48-6.86,44.44-8.2,19.16-20.06,28.74-26.22,32.67a78.85,78.85,0,0,1-23.76,48.29,100.17,100.17,0,0,1-48.14,25.8,73.32,73.32,0,0,1-10.81,25.19c-8.31,12.51-23.12,20.09-30.48,23.26a69.74,69.74,0,0,1-6.36,18.83c-7.8,16.11-26.95,31.57-45.55,36.75-13.31,3.71-70.14,18.82-95.54,25.57l8.22,37.78Z" transform="translate(-121.37 -61.04)"/></g><g id="g258"><path id="path260" class="cls-6" d="M994,170.34s-71.25,31-147.42,50.37C802.35,232,771.85,240.23,754,245.18l19.05-59.43-19.19-18s-22.13,20.66-57.59,43.64c-28.67,18.59-58.57,30.66-69,34.59l12.31-37.34-11.19-14H404.73L386.3,250.1c-8.36-2.21-44.25-11.66-110.31-28.47-76.16-19.38-146.83-51.29-146.83-51.29s-3.82,15.9,6.48,40,25.67,30.93,25.67,30.93.37,25.86,22.74,47.74,48.66,24.52,48.66,24.52,1.35,12.71,11.25,27.63,30.32,21.76,30.32,21.76-.24,7.76,6.24,21.15,24.26,28.12,41.81,33c15,4.18,47.66,12.84,56.76,15.26l-26.17,33.12,15,14.71H512.44l-11.13-51.72,49.4-148.67H578.4l28.7,27.69,6.56-19.92,14.19,14L594.11,405.69,547,466.7l13.45,13.45H706.58l-7.79-35.8c22.55-6,87.59-23.26,102-27.29,17.55-4.89,34.58-19.61,41.06-33S848,363.33,848,363.33s21.32-7.28,31.22-22.19,10.48-27.39,10.48-27.39,27.05-2.87,49.43-24.76,21.84-47.46,21.84-47.46,16.27-7.12,26.57-31.21,6.48-40,6.48-40" transform="translate(-121.37 -61.04)"/></g></g></g></g><g id="g262"><g id="g264"><g id="g270"><g id="g272"><path id="path284" class="cls-7" d="M394.46,268.76l25.92-16.26h44.26L411.82,413.27l-30.69,39,103.68-.12-8.32-38L529.8,252.25H573l17.36,16.39,19.56-60.52L414,207.75Z" transform="translate(-121.37 -61.04)"/></g></g></g></g><g id="g286"><g id="g288"><g id="g294"><g id="g296"><path id="path308" class="cls-8" d="M684.58,233.73C650.1,252.81,627,260.87,627,260.87h0l-5.5,17.61h27.69L605.72,412.9l-31.17,39.25H679.08L670.27,414l69.51-217.31s-20.73,18-55.2,37" transform="translate(-121.37 -61.04)"/></g></g></g></g><g id="g310"><g id="g312"><g id="g318"><g id="g320"><path id="path330" class="cls-9" d="M181.69,261.93c8.75,13.62,26.36,22.69,34.34,24.8h0c8,2.11,104.16,28.12,104.16,28.12h0s-8.58-8-12.84-16.75h0C303.09,289.35,303,279,303,279h0s-49.21-12.84-76.47-20h0C199.21,251.77,174,239.05,174,239.05h0s-1.1,9.26,7.66,22.88" transform="translate(-121.37 -61.04)"/></g></g></g></g><g id="g332"><g id="g334"><g id="g340"><g id="g342"><path id="path352" class="cls-10" d="M250.13,321.21c4.77,7,16.69,18,29.35,21.46h0c12.65,3.48,86.19,23.47,86.19,23.47h0s-8.35-8.07-12.2-16.14h0c-3.85-8.07-4.31-18.71-4.31-18.71h0L246.1,303.42s-.73,10.76,4,17.79" transform="translate(-121.37 -61.04)"/></g></g></g></g><g id="g354"><g id="g356"><g id="g362"><g id="g364"><path id="path374" class="cls-11" d="M155.87,210.63c6.06,8.52,16.32,17.6,38.33,26.77h0c22,9.17,95.18,29.34,95.18,29.34h0a69.42,69.42,0,0,1-12.72-17.3h0c-5-10-3.42-17.45-3.42-17.45h0s-29.71-8.16-61.43-17.51h0c-31.73-9.35-63.27-24.76-63.27-24.76h0s1.28,12.38,7.33,20.91" transform="translate(-121.37 -61.04)"/></g></g></g></g><g id="g376"><g id="g378"><g id="g384"><g id="g386"><path id="path396" class="cls-12" d="M293.72,255c5.9,8.46,16.84,17.11,28.73,20.41h0l50.79,14h0l9.4-28.28-95-25.12s.21,10.49,6.11,19" transform="translate(-121.37 -61.04)"/></g></g></g></g><g id="g398"><g id="g400"><g id="g406"><g id="g408"><path id="path418" class="cls-13" d="M435.35,279.76l-29.88,18.52L433,305.87h0l8.48-26.23Z" transform="translate(-121.37 -61.04)"/></g></g></g></g><g id="g420"><g id="g422"><g id="g428"><g id="g430"><path id="path440" class="cls-14" d="M322.94,300.67c5.59,8.16,14.58,17.7,27.87,21.39h0c11.45,3.19,57.88,16.06,70.61,19.59h0l9-27.8-34.84-9.44-10.83,6.71-14-13.42-52.23-14.15a26.86,26.86,0,0,0,4.4,17.12" transform="translate(-121.37 -61.04)"/></g></g></g></g><g id="g442"><g id="g444"><g id="g450"><g id="g452"><path id="path462" class="cls-15" d="M369.52,354c4.71,6.48,13.81,14.8,22.74,18h0c6.21,2.21,13.51,4.77,17.38,6.13h0l9.06-28L364,335.27s.79,12.22,5.5,18.7" transform="translate(-121.37 -61.04)"/></g></g></g></g><g id="g464"><g id="g466"><g id="g472"><g id="g474"><path id="path484" class="cls-16" d="M290.94,369.71c3.94,7.34,15.4,20,28.15,23.48h0c11.05,3,62,16.82,75.39,20.43h0l6-7.32L407,386.39l-118.67-31.8a26.17,26.17,0,0,0,2.66,15.12" transform="translate(-121.37 -61.04)"/></g></g></g></g><g id="g486"><g id="g488"><g id="g494"><g id="g496"><path id="path506" class="cls-17" d="M895.41,259.47c-27.26,7.21-76.47,20-76.47,20h0s-.14,10.31-4.4,19.07h0c-4.27,8.76-12.84,16.75-12.84,16.75h0s96.19-26,104.16-28.12h0c8-2.11,25.59-11.19,34.35-24.8h0c8.75-13.62,7.65-22.88,7.65-22.88h0s-25.19,12.71-52.45,19.93" transform="translate(-121.37 -61.04)"/></g></g></g></g><g id="g508"><g id="g510"><g id="g516"><g id="g518"><path id="path528" class="cls-18" d="M772.73,331.79s-.46,10.63-4.32,18.7h0c-3.84,8.07-12.19,16.14-12.19,16.14h0s73.54-20,86.19-23.48h0c12.66-3.48,24.58-14.42,29.35-21.45h0c4.76-7,4-17.79,4-17.79h0Z" transform="translate(-121.37 -61.04)"/></g></g></g></g><g id="g530"><g id="g532"><g id="g538"><g id="g540"><path id="path550" class="cls-19" d="M910.08,215c-31.72,9.35-61.43,17.51-61.43,17.51h0s1.59,7.43-3.42,17.45h0a69.42,69.42,0,0,1-12.72,17.3h0s73.17-20.17,95.18-29.34h0c22-9.17,32.27-18.25,38.33-26.78h0c6.05-8.52,7.33-20.9,7.33-20.9h0s-31.54,15.4-63.27,24.76" transform="translate(-121.37 -61.04)"/></g></g></g></g><g id="g552"><g id="g554"><g id="g560"><g id="g562"><path id="path572" class="cls-20" d="M749.66,258.82l-10.58,33c11.72-3.07,50.31-13.19,60.36-16h0c11.89-3.3,22.83-12,28.73-20.42h0c5.9-8.46,6.11-19,6.11-19h0Z" transform="translate(-121.37 -61.04)"/></g></g></g></g><g id="g574"><g id="g576"><g id="g582"><g id="g584"><path id="path594" class="cls-21" d="M735.71,302.33,725.2,335.12c9.57-2.61,35.17-9.59,45.88-12.57h0c13.29-3.69,22.28-13.23,27.87-21.39h0a26.86,26.86,0,0,0,4.4-17.12h0Z" transform="translate(-121.37 -61.04)"/></g></g></g></g><g id="g596"><g id="g598"><g id="g604"><g id="g606"><path id="path616" class="cls-22" d="M722,345l-10.63,33.14c4.53-1.29,12.28-3.57,18.22-5.69h0c8.92-3.17,18-11.49,22.74-18h0c4.71-6.48,5.5-18.7,5.5-18.7h0Z" transform="translate(-121.37 -61.04)"/></g></g></g></g><g id="g618"><g id="g620"><g id="g626"><g id="g628"><path id="path638" class="cls-23" d="M708.13,388.36l-10.56,32.93c22.56-5.89,94.51-24.68,105.23-27.61h0C815.55,390.19,827,377.54,831,370.2h0a26.3,26.3,0,0,0,2.66-15.13h0Z" transform="translate(-121.37 -61.04)"/></g></g></g></g><g id="g640"><g class="cls-2"><g id="g642"><g id="g648"><path id="path650" class="cls-24" d="M419.86,244.46l-9.72,5.78,11.55-35.12h7.7Z" transform="translate(-121.37 -61.04)"/></g><g id="g652"><path id="path654" class="cls-24" d="M474.78,251.93h7.75L429.35,413.45l-24.93,30.81H397l24.94-31.17Z" transform="translate(-121.37 -61.04)"/></g><g id="g656"><path id="path658" class="cls-24" d="M637.26,270.5l1.65-7.24s18.89-6.51,45.12-21.37,42.82-27.6,42.82-27.6l-2.94,10.09a291.77,291.77,0,0,1-40.62,25.4c-22.92,11.74-46,20.72-46,20.72" transform="translate(-121.37 -61.04)"/></g><g id="g660"><path id="path662" class="cls-24" d="M661,273.8h7.52L622.9,413.7l-23.17,30.13h-7.58L615.93,413Z" transform="translate(-121.37 -61.04)"/></g></g></g></g></g></svg>