<svg id="svg" version="1.1" xmlns="http://www.w3.org/2000/svg" xmlns:xlink="http://www.w3.org/1999/xlink" width="400" height="381.5950920245399" viewBox="0, 0, 400,381.5950920245399"><g id="svgg"><path id="path0" d="M193.750 61.005 C 166.739 62.806,142.193 72.220,121.409 88.752 C 61.992 136.011,55.156 224.342,106.585 280.333 C 107.806 281.662,109.082 283.012,109.422 283.333 L 110.040 283.917 109.954 283.083 C 109.907 282.625,109.676 280.563,109.441 278.500 C 108.675 271.792,108.273 265.511,107.998 255.917 C 107.895 252.309,107.725 249.320,107.553 248.083 C 106.818 242.796,107.451 237.991,109.369 234.289 C 110.614 231.888,111.965 231.021,117.083 229.342 C 120.550 228.205,123.212 227.017,125.309 225.672 L 126.667 224.801 126.667 205.391 L 126.667 185.982 127.458 186.033 L 128.250 186.083 128.292 204.796 L 128.335 223.509 129.209 222.867 C 133.478 219.733,143.280 214.442,149.500 211.915 C 150.371 211.561,151.106 211.256,151.134 211.238 C 151.162 211.219,150.884 210.202,150.517 208.977 C 146.384 195.188,145.137 178.499,147.156 164.000 C 147.329 162.762,147.514 160.625,147.568 159.250 C 147.966 149.158,150.824 137.531,155.098 128.614 L 155.667 127.426 155.667 118.213 L 155.667 109.000 157.500 109.000 L 159.333 109.000 159.333 114.950 L 159.333 120.899 160.469 119.158 C 164.510 112.964,170.668 106.176,176.713 101.252 L 179.167 99.254 179.167 97.627 L 179.167 96.000 180.241 96.000 L 181.316 96.000 181.366 96.835 L 181.417 97.671 183.059 96.571 C 185.250 95.105,187.306 93.866,189.433 92.730 L 191.187 91.793 195.802 91.879 C 200.807 91.973,203.257 92.250,207.038 93.150 L 208.992 93.615 209.038 90.849 L 209.083 88.083 210.872 88.036 L 212.660 87.989 212.705 91.427 L 212.750 94.865 214.083 95.404 C 222.718 98.895,230.836 105.541,236.535 113.784 L 237.375 115.000 239.771 115.000 L 242.167 115.000 242.167 119.058 L 242.167 123.116 243.315 125.517 C 246.336 131.835,248.910 139.589,251.246 149.417 C 252.364 154.115,252.500 155.783,252.182 160.833 C 251.754 167.644,249.705 184.401,249.146 185.667 C 249.044 185.896,248.897 187.321,248.818 188.833 C 248.420 196.422,247.376 205.445,246.098 212.332 C 245.868 213.569,245.734 214.628,245.799 214.687 C 245.864 214.745,246.635 215.097,247.512 215.468 C 249.673 216.382,253.382 218.104,255.820 219.327 C 256.924 219.880,257.867 220.333,257.914 220.333 C 257.961 220.333,258.000 216.021,258.000 210.750 L 258.000 201.167 258.833 201.167 L 259.667 201.167 259.667 211.258 L 259.667 221.349 260.185 221.633 C 261.685 222.454,265.408 224.808,267.011 225.949 C 273.132 230.304,275.451 231.522,280.583 233.080 C 281.408 233.330,282.562 233.752,283.148 234.018 C 283.734 234.283,284.240 234.500,284.273 234.500 C 284.306 234.500,284.333 232.737,284.333 230.583 L 284.333 226.667 286.250 226.667 L 288.167 226.667 288.167 232.830 L 288.167 238.993 288.660 240.705 C 289.739 244.445,289.911 247.424,289.274 251.333 C 289.102 252.386,288.957 255.152,288.841 259.583 C 288.534 271.273,287.631 282.529,286.497 288.820 C 286.275 290.054,286.179 290.101,288.769 287.694 C 322.426 256.410,337.290 209.836,327.980 164.833 C 316.166 107.729,269.383 66.206,211.167 61.154 C 208.471 60.920,196.555 60.818,193.750 61.005 M212.667 67.000 L 212.667 68.500 210.833 68.500 L 209.000 68.500 209.000 67.111 C 209.000 65.398,208.877 65.500,210.944 65.500 L 212.667 65.500 212.667 67.000 M212.667 75.083 L 212.667 79.000 210.833 79.000 L 209.000 79.000 209.000 75.194 C 209.000 73.101,209.050 71.339,209.111 71.278 C 209.172 71.217,209.997 71.167,210.944 71.167 L 212.667 71.167 212.667 75.083 M159.333 78.500 L 159.333 80.000 157.500 80.000 L 155.667 80.000 155.667 78.500 L 155.667 77.000 157.500 77.000 L 159.333 77.000 159.333 78.500 M242.167 78.167 L 242.167 79.333 239.583 79.333 L 237.000 79.333 237.000 78.167 L 237.000 77.000 239.583 77.000 L 242.167 77.000 242.167 78.167 M212.693 81.589 L 212.635 82.511 210.859 82.464 L 209.083 82.417 209.033 81.542 L 208.983 80.667 210.866 80.666 L 212.750 80.666 212.693 81.589 M242.129 84.708 L 242.174 87.833 239.587 87.833 L 237.000 87.833 237.000 84.778 C 237.000 83.097,237.052 81.670,237.115 81.607 C 237.179 81.543,238.323 81.512,239.657 81.537 L 242.083 81.583 242.129 84.708 M159.333 86.583 L 159.333 90.500 157.500 90.500 L 155.667 90.500 155.667 86.583 L 155.667 82.667 157.500 82.667 L 159.333 82.667 159.333 86.583 M212.667 85.089 L 212.667 86.011 210.875 85.964 L 209.083 85.917 209.033 85.042 L 208.983 84.167 210.825 84.167 L 212.667 84.167 212.667 85.089 M181.333 88.667 L 181.333 89.667 180.250 89.667 L 179.167 89.667 179.167 88.667 L 179.167 87.667 180.250 87.667 L 181.333 87.667 181.333 88.667 M242.167 89.921 L 242.167 90.675 239.625 90.629 L 237.083 90.583 237.032 89.875 L 236.981 89.167 239.574 89.167 L 242.167 89.167 242.167 89.921 M275.000 93.917 L 275.000 96.833 273.917 96.833 L 272.833 96.833 272.833 94.008 L 272.833 91.183 273.875 91.123 C 274.448 91.091,274.935 91.050,274.958 91.032 C 274.981 91.014,275.000 92.313,275.000 93.917 M181.333 92.667 L 181.333 93.667 180.250 93.667 L 179.167 93.667 179.167 92.667 L 179.167 91.667 180.250 91.667 L 181.333 91.667 181.333 92.667 M242.167 92.750 L 242.167 93.500 239.583 93.500 L 237.000 93.500 237.000 92.750 L 237.000 92.000 239.583 92.000 L 242.167 92.000 242.167 92.750 M159.333 93.083 L 159.333 94.000 157.500 94.000 L 155.667 94.000 155.667 93.083 L 155.667 92.167 157.500 92.167 L 159.333 92.167 159.333 93.083 M242.167 98.338 L 242.167 101.509 239.625 101.463 L 237.083 101.417 237.038 98.292 L 236.993 95.167 239.580 95.167 L 242.167 95.167 242.167 98.338 M140.500 96.667 L 140.500 98.000 138.667 98.000 L 136.833 98.000 136.833 96.667 L 136.833 95.333 138.667 95.333 L 140.500 95.333 140.500 96.667 M159.333 96.667 L 159.333 97.667 157.500 97.667 L 155.667 97.667 155.667 96.778 C 155.667 95.630,155.603 95.667,157.611 95.667 L 159.333 95.667 159.333 96.667 M275.000 100.417 L 275.000 102.167 273.917 102.167 L 272.833 102.167 272.833 100.417 L 272.833 98.667 273.917 98.667 L 275.000 98.667 275.000 100.417 M159.333 103.672 L 159.333 107.678 157.542 107.631 L 155.750 107.583 155.705 103.837 C 155.650 99.220,155.449 99.667,157.578 99.667 L 159.333 99.667 159.333 103.672 M140.500 103.833 L 140.500 107.333 138.667 107.333 L 136.833 107.333 136.833 103.833 L 136.833 100.333 138.667 100.333 L 140.500 100.333 140.500 103.833 M242.129 105.792 L 242.083 108.917 239.583 108.917 L 237.083 108.917 237.038 105.792 L 236.993 102.667 239.583 102.667 L 242.174 102.667 242.129 105.792 M275.000 105.167 L 275.000 106.167 273.917 106.167 L 272.833 106.167 272.833 105.278 C 272.833 104.175,272.842 104.167,274.028 104.167 L 275.000 104.167 275.000 105.167 M275.167 108.258 L 275.167 109.182 274.042 109.133 L 272.917 109.083 272.866 108.208 L 272.816 107.333 273.991 107.333 L 275.167 107.333 275.167 108.258 M259.833 110.917 L 259.833 113.500 258.750 113.500 L 257.667 113.500 257.667 111.028 C 257.667 108.179,257.598 108.333,258.861 108.333 L 259.833 108.333 259.833 110.917 M140.500 109.667 L 140.500 110.500 138.667 110.500 L 136.833 110.500 136.833 109.667 L 136.833 108.833 138.667 108.833 L 140.500 108.833 140.500 109.667 M242.167 111.750 L 242.167 113.000 239.583 113.000 L 237.000 113.000 237.000 111.750 L 237.000 110.500 239.583 110.500 L 242.167 110.500 242.167 111.750 M288.167 114.667 L 288.167 118.833 286.250 118.833 L 284.333 118.833 284.333 114.667 L 284.333 110.500 286.250 110.500 L 288.167 110.500 288.167 114.667 M275.167 113.639 C 275.167 116.914,275.302 116.597,273.931 116.527 L 272.833 116.472 272.833 113.764 C 272.833 110.638,272.748 110.833,274.111 110.833 L 275.167 110.833 275.167 113.639 M116.500 113.255 L 116.500 114.511 114.625 114.464 L 112.750 114.417 112.699 113.435 C 112.623 111.957,112.564 112.000,114.661 112.000 L 116.500 112.000 116.500 113.255 M140.500 112.833 L 140.500 113.667 138.667 113.667 L 136.833 113.667 136.833 112.833 L 136.833 112.000 138.667 112.000 L 140.500 112.000 140.500 112.833 M259.833 116.500 L 259.833 118.000 258.750 118.000 L 257.667 118.000 257.667 116.500 L 257.667 115.000 258.750 115.000 L 259.833 115.000 259.833 116.500 M140.500 119.000 L 140.500 122.500 138.667 122.500 L 136.833 122.500 136.833 119.000 L 136.833 115.500 138.667 115.500 L 140.500 115.500 140.500 119.000 M116.500 119.833 L 116.500 123.000 114.583 123.000 L 112.667 123.000 112.667 119.944 C 112.667 116.335,112.462 116.667,114.694 116.667 L 116.500 116.667 116.500 119.833 M187.833 117.676 C 186.448 117.921,185.261 118.877,182.359 122.083 C 178.767 126.051,173.079 132.914,170.083 136.894 L 169.598 137.539 170.674 136.878 C 171.740 136.224,175.970 133.243,182.083 128.837 C 189.857 123.235,191.676 121.998,193.441 121.113 C 194.998 120.332,198.460 118.818,199.566 118.435 C 200.892 117.975,190.092 117.277,187.833 117.676 M259.833 120.667 L 259.833 121.500 258.750 121.500 L 257.667 121.500 257.667 120.667 L 257.667 119.833 258.750 119.833 L 259.833 119.833 259.833 120.667 M274.833 134.917 L 274.833 148.833 274.000 148.833 L 273.167 148.833 273.167 134.917 L 273.167 121.000 274.000 121.000 L 274.833 121.000 274.833 134.917 M260.000 123.341 L 260.000 124.182 258.875 124.133 L 257.750 124.083 257.699 123.292 L 257.648 122.500 258.824 122.500 L 260.000 122.500 260.000 123.341 M303.833 124.422 L 303.833 126.011 301.958 125.964 L 300.083 125.917 300.035 124.375 L 299.987 122.833 301.910 122.833 L 303.833 122.833 303.833 124.422 M140.500 127.333 L 140.500 130.833 138.667 130.833 L 136.833 130.833 136.833 127.333 L 136.833 123.833 138.667 123.833 L 140.500 123.833 140.500 127.333 M116.500 125.000 L 116.500 125.667 114.583 125.667 L 112.667 125.667 112.667 125.000 L 112.667 124.333 114.583 124.333 L 116.500 124.333 116.500 125.000 M288.167 125.417 L 288.167 126.333 286.250 126.333 L 284.333 126.333 284.333 125.417 L 284.333 124.500 286.250 124.500 L 288.167 124.500 288.167 125.417 M259.963 128.042 L 260.009 130.500 258.838 130.500 L 257.667 130.500 257.667 128.111 C 257.667 125.345,257.606 125.472,258.910 125.535 L 259.917 125.583 259.963 128.042 M116.468 127.792 L 116.519 128.500 114.593 128.500 L 112.667 128.500 112.667 127.861 C 112.667 126.986,112.673 126.983,114.658 127.036 L 116.417 127.083 116.468 127.792 M128.500 129.917 L 128.500 132.000 127.417 132.000 L 126.333 132.000 126.333 129.917 L 126.333 127.833 127.417 127.833 L 128.500 127.833 128.500 129.917 M303.833 132.917 L 303.833 137.000 301.917 137.000 L 300.000 137.000 300.000 132.917 L 300.000 128.833 301.917 128.833 L 303.833 128.833 303.833 132.917 M116.500 133.417 L 116.500 136.500 114.583 136.500 L 112.667 136.500 112.667 133.417 L 112.667 130.333 114.583 130.333 L 116.500 130.333 116.500 133.417 M288.167 134.667 L 288.167 138.833 286.250 138.833 L 284.333 138.833 284.333 134.667 L 284.333 130.500 286.250 130.500 L 288.167 130.500 288.167 134.667 M140.500 134.006 L 140.500 135.345 138.708 135.297 L 136.917 135.250 136.868 133.958 L 136.819 132.667 138.660 132.667 L 140.500 132.667 140.500 134.006 M128.500 134.583 L 128.500 135.833 127.417 135.833 L 126.333 135.833 126.333 134.583 L 126.333 133.333 127.417 133.333 L 128.500 133.333 128.500 134.583 M259.667 146.583 L 259.667 158.667 258.833 158.667 L 258.000 158.667 258.000 146.583 L 258.000 134.500 258.833 134.500 L 259.667 134.500 259.667 146.583 M91.000 137.250 L 91.000 138.500 89.083 138.500 L 87.167 138.500 87.167 137.250 L 87.167 136.000 89.083 136.000 L 91.000 136.000 91.000 137.250 M128.500 138.083 L 128.500 138.833 127.417 138.833 L 126.333 138.833 126.333 138.083 L 126.333 137.333 127.417 137.333 L 128.500 137.333 128.500 138.083 M140.500 140.833 L 140.500 144.333 138.667 144.333 L 136.833 144.333 136.833 140.833 L 136.833 137.333 138.667 137.333 L 140.500 137.333 140.500 140.833 M116.500 140.833 L 116.500 144.000 114.583 144.000 L 112.667 144.000 112.667 140.944 C 112.667 137.335,112.462 137.667,114.694 137.667 L 116.500 137.667 116.500 140.833 M303.833 139.839 L 303.833 140.844 301.958 140.797 L 300.083 140.750 300.033 139.792 L 299.983 138.833 301.908 138.833 L 303.833 138.833 303.833 139.839 M128.583 140.250 L 128.583 140.917 127.500 140.917 C 126.434 140.917,126.416 140.909,126.363 140.444 C 126.264 139.582,126.396 139.479,127.540 139.534 L 128.583 139.583 128.583 140.250 M288.167 144.667 L 288.167 148.833 286.250 148.833 L 284.333 148.833 284.333 144.667 L 284.333 140.500 286.250 140.500 L 288.167 140.500 288.167 144.667 M91.000 143.750 L 91.000 146.833 89.083 146.833 L 87.167 146.833 87.167 143.750 L 87.167 140.667 89.083 140.667 L 91.000 140.667 91.000 143.750 M128.630 144.292 L 128.677 146.333 127.505 146.333 L 126.333 146.333 126.333 144.361 C 126.333 142.055,126.285 142.139,127.576 142.201 L 128.583 142.250 128.630 144.292 M303.833 143.505 L 303.833 144.511 301.958 144.464 L 300.083 144.417 300.031 143.689 C 299.946 142.496,299.938 142.500,301.995 142.500 L 303.833 142.500 303.833 143.505 M315.333 143.667 L 315.333 144.833 313.500 144.833 L 311.667 144.833 311.667 143.667 L 311.667 142.500 313.500 142.500 L 315.333 142.500 315.333 143.667 M116.500 146.922 L 116.500 148.178 114.625 148.130 L 112.750 148.083 112.699 147.102 C 112.623 145.624,112.564 145.667,114.661 145.667 L 116.500 145.667 116.500 146.922 M234.610 146.833 C 234.451 147.592,234.168 150.157,233.256 159.083 C 232.760 163.942,231.892 172.417,231.328 177.917 L 230.301 187.917 229.221 190.667 C 227.862 194.127,225.552 198.853,224.030 201.286 L 222.862 203.155 222.661 205.619 C 222.253 210.634,222.587 215.673,223.409 216.929 C 223.784 217.501,223.511 218.063,226.245 211.104 C 230.841 199.405,233.812 192.589,234.750 191.595 C 235.429 190.875,236.150 188.950,237.010 185.562 C 240.420 172.125,239.710 157.419,235.168 147.451 C 234.755 146.544,234.686 146.468,234.610 146.833 M104.333 149.500 L 104.333 152.333 103.250 152.333 L 102.167 152.333 102.167 149.500 L 102.167 146.667 103.250 146.667 L 104.333 146.667 104.333 149.500 M303.833 150.839 L 303.833 155.011 301.958 154.964 L 300.083 154.917 300.039 151.003 C 299.983 146.186,299.767 146.667,301.995 146.667 L 303.833 146.667 303.833 150.839 M315.333 150.167 L 315.333 153.333 313.500 153.333 L 311.667 153.333 311.667 150.167 L 311.667 147.000 313.500 147.000 L 315.333 147.000 315.333 150.167 M163.060 147.966 C 159.970 152.922,155.161 161.870,153.939 164.937 C 153.014 167.258,152.990 167.064,155.508 177.250 C 157.295 184.478,161.888 201.596,164.775 211.789 C 165.106 212.956,165.163 212.965,166.220 211.998 C 168.536 209.882,169.954 205.289,170.505 198.121 L 170.694 195.659 170.157 194.371 C 165.846 184.036,162.594 168.253,163.261 160.900 C 163.331 160.120,163.270 159.024,163.079 157.687 C 162.765 155.477,162.806 149.742,163.145 148.421 C 163.338 147.671,163.316 147.556,163.060 147.966 M91.000 148.917 L 91.000 149.667 89.083 149.667 L 87.167 149.667 87.167 148.917 L 87.167 148.167 89.083 148.167 L 91.000 148.167 91.000 148.917 M128.333 159.750 L 128.333 169.833 127.500 169.833 L 126.667 169.833 126.667 159.750 L 126.667 149.667 127.500 149.667 L 128.333 149.667 128.333 159.750 M140.500 153.333 L 140.500 156.833 138.667 156.833 L 136.833 156.833 136.833 153.333 L 136.833 149.833 138.667 149.833 L 140.500 149.833 140.500 153.333 M116.500 153.167 L 116.500 156.333 114.583 156.333 L 112.667 156.333 112.667 153.278 C 112.667 149.669,112.462 150.000,114.694 150.000 L 116.500 150.000 116.500 153.167 M288.167 152.583 L 288.167 154.167 286.250 154.167 L 284.333 154.167 284.333 152.583 L 284.333 151.000 286.250 151.000 L 288.167 151.000 288.167 152.583 M91.000 151.833 L 91.000 152.500 89.083 152.500 L 87.167 152.500 87.167 151.833 L 87.167 151.167 89.083 151.167 L 91.000 151.167 91.000 151.833 M275.000 156.591 L 275.000 159.516 273.958 159.466 L 272.917 159.417 272.871 156.542 L 272.825 153.667 273.913 153.667 L 275.000 153.667 275.000 156.591 M91.000 157.333 L 91.000 160.500 89.083 160.500 L 87.167 160.500 87.167 157.444 C 87.167 153.835,86.962 154.167,89.194 154.167 L 91.000 154.167 91.000 157.333 M104.333 156.008 L 104.333 157.849 103.292 157.800 L 102.250 157.750 102.203 155.958 L 102.155 154.167 103.244 154.167 L 104.333 154.167 104.333 156.008 M315.333 155.417 L 315.333 156.167 313.500 156.167 L 311.667 156.167 311.667 155.417 L 311.667 154.667 313.500 154.667 L 315.333 154.667 315.333 155.417 M288.167 159.333 L 288.167 162.333 286.250 162.333 L 284.333 162.333 284.333 159.333 L 284.333 156.333 286.250 156.333 L 288.167 156.333 288.167 159.333 M303.833 160.672 L 303.833 164.844 301.958 164.797 L 300.083 164.750 300.039 160.625 L 299.994 156.500 301.914 156.500 L 303.833 156.500 303.833 160.672 M315.333 158.250 L 315.333 159.000 313.500 159.000 L 311.667 159.000 311.667 158.250 L 311.667 157.500 313.500 157.500 L 315.333 157.500 315.333 158.250 M104.333 160.750 L 104.333 161.667 103.250 161.667 L 102.167 161.667 102.167 160.750 L 102.167 159.833 103.250 159.833 L 104.333 159.833 104.333 160.750 M315.333 163.833 L 315.333 167.000 313.500 167.000 L 311.667 167.000 311.667 163.833 L 311.667 160.667 313.500 160.667 L 315.333 160.667 315.333 163.833 M275.000 162.833 L 275.000 164.667 273.917 164.667 L 272.833 164.667 272.833 162.944 C 272.833 160.923,272.786 161.000,274.028 161.000 L 275.000 161.000 275.000 162.833 M116.500 164.339 L 116.500 167.511 114.625 167.464 L 112.750 167.417 112.704 164.506 C 112.647 160.836,112.453 161.167,114.661 161.167 L 116.500 161.167 116.500 164.339 M140.500 162.167 L 140.500 163.000 138.667 163.000 L 136.833 163.000 136.833 162.167 L 136.833 161.333 138.667 161.333 L 140.500 161.333 140.500 162.167 M91.000 164.833 L 91.000 168.000 89.083 168.000 L 87.167 168.000 87.167 164.944 C 87.167 161.335,86.962 161.667,89.194 161.667 L 91.000 161.667 91.000 164.833 M259.833 165.250 L 259.833 167.833 258.750 167.833 L 257.667 167.833 257.667 165.361 C 257.667 162.512,257.598 162.667,258.861 162.667 L 259.833 162.667 259.833 165.250 M104.500 163.750 L 104.500 164.667 103.417 164.667 L 102.333 164.667 102.333 163.750 L 102.333 162.833 103.417 162.833 L 104.500 162.833 104.500 163.750 M288.129 166.542 L 288.083 169.583 286.250 169.583 L 284.417 169.583 284.371 166.542 L 284.326 163.500 286.250 163.500 L 288.174 163.500 288.129 166.542 M104.462 169.208 L 104.417 172.083 103.375 172.133 L 102.333 172.183 102.333 169.258 L 102.333 166.333 103.421 166.333 L 104.508 166.333 104.462 169.208 M140.500 169.833 L 140.500 173.333 138.667 173.333 L 136.833 173.333 136.833 169.833 L 136.833 166.333 138.667 166.333 L 140.500 166.333 140.500 169.833 M275.000 167.750 L 275.000 168.667 273.917 168.667 L 272.833 168.667 272.833 167.750 L 272.833 166.833 273.917 166.833 L 275.000 166.833 275.000 167.750 M303.833 168.417 L 303.833 170.000 301.917 170.000 L 300.000 170.000 300.000 168.528 C 300.000 166.716,299.860 166.833,302.028 166.833 L 303.833 166.833 303.833 168.417 M315.333 171.333 L 315.333 174.500 313.500 174.500 L 311.667 174.500 311.667 171.333 L 311.667 168.167 313.500 168.167 L 315.333 168.167 315.333 171.333 M259.798 170.792 L 259.846 172.333 258.756 172.333 L 257.667 172.333 257.667 170.861 C 257.667 169.116,257.651 169.139,258.827 169.201 L 259.750 169.250 259.798 170.792 M91.000 170.833 L 91.000 172.000 89.083 172.000 L 87.167 172.000 87.167 170.833 L 87.167 169.667 89.083 169.667 L 91.000 169.667 91.000 170.833 M274.833 197.750 L 274.833 224.500 274.000 224.500 L 273.167 224.500 273.167 197.750 L 273.167 171.000 274.000 171.000 L 274.833 171.000 274.833 197.750 M116.500 172.422 L 116.500 173.178 114.625 173.130 L 112.750 173.083 112.696 172.611 C 112.592 171.703,112.668 171.667,114.661 171.667 L 116.500 171.667 116.500 172.422 M288.129 174.797 L 288.174 177.844 286.295 177.797 L 284.417 177.750 284.371 174.923 C 284.313 171.335,284.127 171.646,286.289 171.703 L 288.083 171.750 288.129 174.797 M98.833 175.000 L 98.833 178.167 97.667 178.167 L 96.500 178.167 96.500 175.000 L 96.500 171.833 97.667 171.833 L 98.833 171.833 98.833 175.000 M303.795 176.708 L 303.839 180.833 301.920 180.833 L 300.000 180.833 300.000 176.764 C 300.000 173.666,300.050 172.674,300.208 172.608 C 300.323 172.560,301.167 172.535,302.083 172.552 L 303.750 172.583 303.795 176.708 M128.500 175.500 L 128.500 177.667 127.417 177.667 L 126.333 177.667 126.333 175.500 L 126.333 173.333 127.417 173.333 L 128.500 173.333 128.500 175.500 M91.000 177.083 L 91.000 180.167 89.083 180.167 L 87.167 180.167 87.167 177.083 L 87.167 174.000 89.083 174.000 L 91.000 174.000 91.000 177.083 M259.833 175.000 L 259.833 175.833 258.750 175.833 L 257.667 175.833 257.667 175.000 L 257.667 174.167 258.750 174.167 L 259.833 174.167 259.833 175.000 M140.500 178.167 L 140.500 181.667 138.667 181.667 L 136.833 181.667 136.833 178.167 L 136.833 174.667 138.667 174.667 L 140.500 174.667 140.500 178.167 M315.299 177.292 L 315.348 178.500 313.507 178.500 L 311.667 178.500 311.667 177.244 L 311.667 175.989 313.458 176.036 L 315.250 176.083 315.299 177.292 M116.462 179.292 L 116.417 182.417 114.583 182.417 L 112.750 182.417 112.705 179.292 L 112.659 176.167 114.583 176.167 L 116.507 176.167 116.462 179.292 M104.167 190.500 L 104.167 204.333 103.333 204.333 L 102.500 204.333 102.500 190.500 L 102.500 176.667 103.333 176.667 L 104.167 176.667 104.167 190.500 M128.500 180.167 L 128.500 181.500 127.417 181.500 L 126.333 181.500 126.333 180.167 L 126.333 178.833 127.417 178.833 L 128.500 178.833 128.500 180.167 M288.129 182.042 L 288.083 185.083 286.250 185.083 L 284.417 185.083 284.371 182.042 L 284.326 179.000 286.250 179.000 L 288.174 179.000 288.129 182.042 M260.000 181.674 L 260.000 184.182 258.875 184.133 L 257.750 184.083 257.703 181.842 C 257.645 179.030,257.583 179.167,258.911 179.167 L 260.000 179.167 260.000 181.674 M315.333 183.500 L 315.333 186.667 313.500 186.667 L 311.667 186.667 311.667 183.500 L 311.667 180.333 313.500 180.333 L 315.333 180.333 315.333 183.500 M98.833 182.917 L 98.833 183.667 97.667 183.667 L 96.500 183.667 96.500 182.917 L 96.500 182.167 97.667 182.167 L 98.833 182.167 98.833 182.917 M128.500 183.667 L 128.500 184.333 127.417 184.333 L 126.333 184.333 126.333 183.667 L 126.333 183.000 127.417 183.000 L 128.500 183.000 128.500 183.667 M140.500 184.833 L 140.500 186.167 138.667 186.167 L 136.833 186.167 136.833 184.833 L 136.833 183.500 138.667 183.500 L 140.500 183.500 140.500 184.833 M116.500 186.750 L 116.500 189.833 114.583 189.833 L 112.667 189.833 112.667 186.750 L 112.667 183.667 114.583 183.667 L 116.500 183.667 116.500 186.750 M91.000 188.333 L 91.000 191.500 89.083 191.500 L 87.167 191.500 87.167 188.333 L 87.167 185.167 89.083 185.167 L 91.000 185.167 91.000 188.333 M98.833 189.833 L 98.833 193.000 97.667 193.000 L 96.500 193.000 96.500 189.944 C 96.500 186.433,96.409 186.667,97.778 186.667 L 98.833 186.667 98.833 189.833 M260.000 192.750 L 260.000 198.833 258.833 198.833 L 257.667 198.833 257.667 192.861 C 257.667 186.113,257.552 186.667,258.944 186.667 L 260.000 186.667 260.000 192.750 M288.133 187.792 L 288.083 188.917 286.250 188.917 L 284.417 188.917 284.367 187.792 L 284.318 186.667 286.250 186.667 L 288.182 186.667 288.133 187.792 M303.795 191.380 L 303.839 195.511 301.961 195.464 L 300.083 195.417 300.039 191.503 C 299.983 186.674,299.773 187.145,301.955 187.203 L 303.750 187.250 303.795 191.380 M140.500 191.756 L 140.500 195.345 138.708 195.297 L 136.917 195.250 136.871 191.921 C 136.815 187.782,136.623 188.167,138.745 188.167 L 140.500 188.167 140.500 191.756 M288.132 192.542 L 288.083 193.917 286.250 193.917 L 284.417 193.917 284.368 192.542 L 284.320 191.167 286.250 191.167 L 288.180 191.167 288.132 192.542 M116.500 192.755 L 116.500 194.011 114.625 193.964 L 112.750 193.917 112.701 192.708 L 112.652 191.500 114.576 191.500 L 116.500 191.500 116.500 192.755 M315.333 194.750 L 315.333 197.833 313.500 197.833 L 311.667 197.833 311.667 194.750 L 311.667 191.667 313.500 191.667 L 315.333 191.667 315.333 194.750 M98.833 197.333 L 98.833 200.500 97.667 200.500 L 96.500 200.500 96.500 197.333 L 96.500 194.167 97.667 194.167 L 98.833 194.167 98.833 197.333 M288.083 196.750 L 288.083 198.250 286.250 198.250 L 284.417 198.250 284.368 196.931 C 284.298 195.057,284.197 195.148,286.289 195.203 L 288.083 195.250 288.083 196.750 M91.000 196.333 L 91.000 197.000 89.083 197.000 L 87.167 197.000 87.167 196.333 L 87.167 195.667 89.083 195.667 L 91.000 195.667 91.000 196.333 M116.500 199.005 L 116.500 202.178 114.625 202.130 L 112.750 202.083 112.704 199.173 C 112.647 195.503,112.453 195.833,114.661 195.833 L 116.500 195.833 116.500 199.005 M91.000 203.250 L 91.000 206.333 89.083 206.333 L 87.167 206.333 87.167 203.250 L 87.167 200.167 89.083 200.167 L 91.000 200.167 91.000 203.250 M140.500 204.167 L 140.500 207.667 138.667 207.667 L 136.833 207.667 136.833 204.167 L 136.833 200.667 138.667 200.667 L 140.500 200.667 140.500 204.167 M303.833 202.005 L 303.833 203.011 301.958 202.964 L 300.083 202.917 300.033 201.958 L 299.983 201.000 301.908 201.000 L 303.833 201.000 303.833 202.005 M315.333 202.750 L 315.333 203.500 313.500 203.500 L 311.667 203.500 311.667 202.750 L 311.667 202.000 313.500 202.000 L 315.333 202.000 315.333 202.750 M98.833 203.333 L 98.833 204.500 97.667 204.500 L 96.500 204.500 96.500 203.333 L 96.500 202.167 97.667 202.167 L 98.833 202.167 98.833 203.333 M288.167 208.917 L 288.167 214.000 286.250 214.000 L 284.333 214.000 284.333 208.917 L 284.333 203.833 286.250 203.833 L 288.167 203.833 288.167 208.917 M98.833 208.417 L 98.833 210.667 97.667 210.667 L 96.500 210.667 96.500 208.417 L 96.500 206.167 97.667 206.167 L 98.833 206.167 98.833 208.417 M315.295 209.625 L 315.250 212.750 313.458 212.797 L 311.667 212.845 311.667 209.672 L 311.667 206.500 313.504 206.500 L 315.341 206.500 315.295 209.625 M303.833 211.005 L 303.833 215.178 301.958 215.130 L 300.083 215.083 300.039 211.170 C 299.983 206.353,299.767 206.833,301.995 206.833 L 303.833 206.833 303.833 211.005 M116.500 210.172 L 116.500 213.344 114.625 213.297 L 112.750 213.250 112.705 210.125 L 112.659 207.000 114.580 207.000 L 116.500 207.000 116.500 210.172 M91.000 210.667 L 91.000 213.833 89.083 213.833 L 87.167 213.833 87.167 210.667 L 87.167 207.500 89.083 207.500 L 91.000 207.500 91.000 210.667 M104.333 212.000 L 104.333 214.833 103.250 214.833 L 102.167 214.833 102.167 212.000 L 102.167 209.167 103.250 209.167 L 104.333 209.167 104.333 212.000 M98.833 213.750 L 98.833 216.000 97.667 216.000 L 96.500 216.000 96.500 213.750 L 96.500 211.500 97.667 211.500 L 98.833 211.500 98.833 213.750 M140.500 213.083 L 140.500 213.833 138.667 213.833 L 136.833 213.833 136.833 213.083 L 136.833 212.333 138.667 212.333 L 140.500 212.333 140.500 213.083 M315.333 217.167 L 315.333 220.333 313.500 220.333 L 311.667 220.333 311.667 217.167 L 311.667 214.000 313.500 214.000 L 315.333 214.000 315.333 217.167 M91.000 216.667 L 91.000 217.833 89.083 217.833 L 87.167 217.833 87.167 216.667 L 87.167 215.500 89.083 215.500 L 91.000 215.500 91.000 216.667 M288.167 220.333 L 288.167 224.500 286.250 224.500 L 284.333 224.500 284.333 220.333 L 284.333 216.167 286.250 216.167 L 288.167 216.167 288.167 220.333 M104.333 218.508 L 104.333 220.349 103.292 220.300 L 102.250 220.250 102.203 218.458 L 102.155 216.667 103.244 216.667 L 104.333 216.667 104.333 218.508 M303.833 220.750 L 303.833 224.833 301.917 224.833 L 300.000 224.833 300.000 220.750 L 300.000 216.667 301.917 216.667 L 303.833 216.667 303.833 220.750 M116.500 218.250 L 116.500 219.000 114.583 219.000 L 112.667 219.000 112.667 218.250 L 112.667 217.500 114.583 217.500 L 116.500 217.500 116.500 218.250 M98.833 219.917 L 98.833 222.167 97.667 222.167 L 96.500 222.167 96.500 219.917 L 96.500 217.667 97.667 217.667 L 98.833 217.667 98.833 219.917 M91.000 223.005 L 91.000 226.178 89.125 226.130 L 87.250 226.083 87.205 222.958 L 87.159 219.833 89.080 219.833 L 91.000 219.833 91.000 223.005 M116.500 223.500 L 116.500 225.333 114.583 225.333 L 112.667 225.333 112.667 223.611 C 112.667 221.516,112.510 221.667,114.694 221.667 L 116.500 221.667 116.500 223.500 M315.299 223.125 L 315.348 224.333 313.507 224.333 L 311.667 224.333 311.667 223.078 L 311.667 221.822 313.458 221.869 L 315.250 221.917 315.299 223.125 M104.333 223.250 L 104.333 224.167 103.250 224.167 L 102.167 224.167 102.167 223.250 L 102.167 222.333 103.250 222.333 L 104.333 222.333 104.333 223.250 M98.833 225.333 L 98.833 227.667 97.667 227.667 L 96.500 227.667 96.500 225.333 L 96.500 223.000 97.667 223.000 L 98.833 223.000 98.833 225.333 M315.295 229.404 L 315.341 232.500 313.504 232.500 L 311.667 232.500 311.667 229.375 L 311.667 226.250 313.458 226.279 L 315.250 226.309 315.295 229.404 M104.167 250.250 L 104.167 274.000 103.333 274.000 L 102.500 274.000 102.500 250.250 L 102.500 226.500 103.333 226.500 L 104.167 226.500 104.167 250.250 M303.798 228.625 L 303.750 230.250 302.250 230.299 C 299.923 230.375,300.000 230.430,300.000 228.691 C 300.000 226.883,299.860 227.000,302.034 227.000 L 303.845 227.000 303.798 228.625 M98.833 229.667 L 98.833 230.500 97.667 230.500 L 96.500 230.500 96.500 229.667 L 96.500 228.833 97.667 228.833 L 98.833 228.833 98.833 229.667 M91.000 234.167 L 91.000 237.333 89.083 237.333 L 87.167 237.333 87.167 234.167 L 87.167 231.000 89.083 231.000 L 91.000 231.000 91.000 234.167 M98.833 233.167 L 98.833 234.167 97.667 234.167 L 96.500 234.167 96.500 233.167 L 96.500 232.167 97.667 232.167 L 98.833 232.167 98.833 233.167 M303.833 236.833 L 303.833 241.000 301.917 241.000 L 300.000 241.000 300.000 236.944 C 300.000 234.714,300.050 232.839,300.111 232.778 C 300.172 232.717,301.035 232.667,302.028 232.667 L 303.833 232.667 303.833 236.833 M98.833 236.333 L 98.833 237.500 97.667 237.500 L 96.500 237.500 96.500 236.333 L 96.500 235.167 97.667 235.167 L 98.833 235.167 98.833 236.333 M315.333 240.583 L 315.333 243.667 313.500 243.667 L 311.667 243.667 311.667 240.583 L 311.667 237.500 313.500 237.500 L 315.333 237.500 315.333 240.583 M90.968 242.208 L 90.917 242.917 89.083 242.917 L 87.250 242.917 87.199 242.208 L 87.148 241.500 89.083 241.500 L 91.019 241.500 90.968 242.208 M98.833 245.500 L 98.833 249.333 97.667 249.333 L 96.500 249.333 96.500 245.500 L 96.500 241.667 97.667 241.667 L 98.833 241.667 98.833 245.500 M91.000 247.500 L 91.000 249.333 89.083 249.333 L 87.167 249.333 87.167 247.500 L 87.167 245.667 89.083 245.667 L 91.000 245.667 91.000 247.500 M303.833 251.589 L 303.833 255.678 301.958 255.630 L 300.083 255.583 300.039 251.542 L 299.994 247.500 301.914 247.500 L 303.833 247.500 303.833 251.589 M98.833 254.000 L 98.833 257.167 97.667 257.167 L 96.500 257.167 96.500 254.000 L 96.500 250.833 97.667 250.833 L 98.833 250.833 98.833 254.000 M98.833 259.750 L 98.833 260.833 97.667 260.833 L 96.500 260.833 96.500 259.861 C 96.500 258.659,96.491 258.667,97.778 258.667 L 98.833 258.667 98.833 259.750 M303.833 262.172 L 303.833 263.178 301.958 263.130 L 300.083 263.083 300.033 262.125 L 299.983 261.167 301.908 261.167 L 303.833 261.167 303.833 262.172 " stroke="none" fill="#0c0c13" fill-rule="evenodd"></path><path id="path1" d="M194.083 56.431 C 185.192 56.990,177.667 58.138,169.471 60.186 C 167.608 60.651,165.633 61.133,165.083 61.256 C 162.183 61.905,155.219 64.355,150.167 66.505 C 141.300 70.276,136.084 73.077,127.252 78.806 C 117.671 85.023,106.046 95.613,98.213 105.261 C 95.088 109.110,90.235 115.656,89.634 116.833 C 89.420 117.252,87.289 120.745,86.583 121.833 C 85.367 123.709,80.500 132.746,80.500 133.129 C 80.500 133.218,80.229 133.882,79.897 134.604 C 76.325 142.384,72.868 152.053,71.770 157.333 C 71.627 158.021,71.205 159.929,70.833 161.574 C 64.543 189.381,67.296 219.600,78.425 244.917 C 79.312 246.933,80.243 249.071,80.495 249.667 C 81.451 251.926,84.523 257.750,85.990 260.083 C 87.713 262.824,89.446 265.638,89.696 266.101 C 90.502 267.596,97.107 276.520,98.071 277.417 C 98.169 277.508,98.557 277.996,98.933 278.500 C 101.584 282.056,110.747 291.334,114.772 294.537 C 115.425 295.057,116.213 295.718,116.522 296.005 C 117.380 296.804,121.197 299.795,123.250 301.278 C 143.283 315.742,166.510 324.277,191.203 326.248 C 206.590 327.476,223.026 325.785,238.167 321.415 C 239.313 321.084,241.037 320.586,242.000 320.307 C 247.089 318.835,254.756 315.607,263.250 311.362 C 269.348 308.314,279.512 301.562,285.404 296.645 C 286.603 295.645,288.301 294.229,289.177 293.498 C 291.889 291.239,299.979 283.095,301.884 280.707 C 302.404 280.056,303.587 278.637,304.513 277.553 C 314.183 266.246,326.050 244.416,328.823 232.837 C 328.900 232.514,329.425 230.653,329.989 228.700 C 335.880 208.321,336.821 185.939,332.660 165.148 C 330.958 156.643,327.617 145.335,325.263 140.116 C 325.049 139.639,324.402 138.162,323.826 136.833 C 322.485 133.740,319.145 126.969,317.782 124.583 C 316.509 122.354,313.277 117.233,311.364 114.417 C 308.185 109.735,306.809 107.977,300.750 100.860 C 297.951 97.573,289.308 89.234,286.673 87.279 C 286.173 86.908,285.069 86.018,284.222 85.301 C 278.758 80.681,267.451 73.395,261.167 70.445 C 253.468 66.831,253.893 67.022,250.250 65.552 C 233.221 58.680,212.319 55.286,194.083 56.431 M211.167 61.154 C 279.392 67.075,330.552 122.847,330.579 191.333 C 330.594 228.364,315.669 262.828,288.917 287.539 C 285.851 290.371,286.011 290.231,283.167 292.581 C 234.314 332.938,163.998 331.774,116.257 289.816 C 111.908 285.994,110.169 284.202,110.147 283.522 C 110.128 282.939,110.123 282.934,110.022 283.403 C 109.913 283.905,108.993 283.027,104.974 278.583 C 88.426 260.290,76.865 235.272,73.346 210.140 C 62.701 134.111,117.626 66.080,193.750 61.005 C 196.555 60.818,208.471 60.920,211.167 61.154 M209.111 65.611 C 209.050 65.672,209.000 66.347,209.000 67.111 L 209.000 68.500 210.833 68.500 L 212.667 68.500 212.667 67.000 L 212.667 65.500 210.944 65.500 C 209.997 65.500,209.172 65.550,209.111 65.611 M209.111 71.278 C 209.050 71.339,209.000 73.101,209.000 75.194 L 209.000 79.000 210.833 79.000 L 212.667 79.000 212.667 75.083 L 212.667 71.167 210.944 71.167 C 209.997 71.167,209.172 71.217,209.111 71.278 M155.667 78.500 L 155.667 80.000 157.500 80.000 L 159.333 80.000 159.333 78.500 L 159.333 77.000 157.500 77.000 L 155.667 77.000 155.667 78.500 M237.000 78.167 L 237.000 79.333 239.583 79.333 L 242.167 79.333 242.167 78.167 L 242.167 77.000 239.583 77.000 L 237.000 77.000 237.000 78.167 M209.033 81.542 L 209.083 82.417 210.859 82.464 L 212.635 82.511 212.693 81.589 L 212.750 80.666 210.866 80.666 L 208.983 80.667 209.033 81.542 M237.115 81.607 C 237.052 81.670,237.000 83.097,237.000 84.778 L 237.000 87.833 239.587 87.833 L 242.174 87.833 242.129 84.708 L 242.083 81.583 239.657 81.537 C 238.323 81.512,237.179 81.543,237.115 81.607 M155.667 86.583 L 155.667 90.500 157.500 90.500 L 159.333 90.500 159.333 86.583 L 159.333 82.667 157.500 82.667 L 155.667 82.667 155.667 86.583 M209.033 85.042 L 209.083 85.917 210.875 85.964 L 212.667 86.011 212.667 85.089 L 212.667 84.167 210.825 84.167 L 208.983 84.167 209.033 85.042 M179.167 88.667 L 179.167 89.667 180.250 89.667 L 181.333 89.667 181.333 88.667 L 181.333 87.667 180.250 87.667 L 179.167 87.667 179.167 88.667 M209.111 88.111 C 209.050 88.172,209.000 89.441,209.000 90.931 L 209.000 93.639 210.625 94.177 C 211.519 94.473,212.344 94.750,212.458 94.792 C 212.621 94.852,212.667 94.112,212.667 91.434 L 212.667 88.000 210.944 88.000 C 209.997 88.000,209.172 88.050,209.111 88.111 M237.032 89.875 L 237.083 90.583 239.625 90.629 L 242.167 90.675 242.167 89.921 L 242.167 89.167 239.574 89.167 L 236.981 89.167 237.032 89.875 M273.875 91.123 L 272.833 91.183 272.833 94.008 L 272.833 96.833 273.917 96.833 L 275.000 96.833 275.000 93.917 C 275.000 92.313,274.981 91.014,274.958 91.032 C 274.935 91.050,274.448 91.091,273.875 91.123 M179.167 92.667 L 179.167 93.667 180.250 93.667 L 181.333 93.667 181.333 92.667 L 181.333 91.667 180.250 91.667 L 179.167 91.667 179.167 92.667 M190.667 92.101 C 190.413 92.256,190.381 92.307,190.583 92.230 C 190.767 92.160,191.479 92.055,192.167 91.996 L 193.417 91.889 192.250 91.867 C 191.461 91.852,190.948 91.928,190.667 92.101 M196.880 91.956 C 197.318 91.990,197.993 91.990,198.380 91.955 C 198.767 91.920,198.408 91.892,197.583 91.892 C 196.758 91.893,196.442 91.922,196.880 91.956 M199.711 92.120 C 199.964 92.158,200.339 92.157,200.544 92.117 C 200.749 92.078,200.542 92.046,200.083 92.048 C 199.625 92.049,199.457 92.081,199.711 92.120 M237.000 92.750 L 237.000 93.500 239.583 93.500 L 242.167 93.500 242.167 92.750 L 242.167 92.000 239.583 92.000 L 237.000 92.000 237.000 92.750 M155.667 93.083 L 155.667 94.000 157.500 94.000 L 159.333 94.000 159.333 93.083 L 159.333 92.167 157.500 92.167 L 155.667 92.167 155.667 93.083 M237.038 98.292 L 237.083 101.417 239.625 101.463 L 242.167 101.509 242.167 98.338 L 242.167 95.167 239.580 95.167 L 236.993 95.167 237.038 98.292 M136.833 96.667 L 136.833 98.000 138.667 98.000 L 140.500 98.000 140.500 96.667 L 140.500 95.333 138.667 95.333 L 136.833 95.333 136.833 96.667 M155.778 95.778 C 155.717 95.839,155.667 96.289,155.667 96.778 L 155.667 97.667 157.500 97.667 L 159.333 97.667 159.333 96.667 L 159.333 95.667 157.611 95.667 C 156.664 95.667,155.839 95.717,155.778 95.778 M179.167 97.625 L 179.167 99.250 178.542 99.807 L 177.917 100.365 178.641 99.807 C 179.040 99.501,179.855 98.897,180.453 98.466 C 181.498 97.712,181.980 97.314,181.542 97.566 C 181.387 97.656,181.333 97.471,181.333 96.843 L 181.333 96.000 180.250 96.000 L 179.167 96.000 179.167 97.625 M272.833 100.417 L 272.833 102.167 273.917 102.167 L 275.000 102.167 275.000 100.417 L 275.000 98.667 273.917 98.667 L 272.833 98.667 272.833 100.417 M221.417 99.253 C 221.600 99.402,221.900 99.598,222.083 99.688 L 222.417 99.852 222.083 99.580 C 221.900 99.431,221.600 99.235,221.417 99.145 L 221.083 98.982 221.417 99.253 M155.741 99.879 C 155.697 99.995,155.680 101.777,155.705 103.837 L 155.750 107.583 157.542 107.631 L 159.333 107.678 159.333 103.672 L 159.333 99.667 157.578 99.667 C 156.311 99.667,155.800 99.726,155.741 99.879 M222.500 99.901 C 222.500 99.946,222.838 100.216,223.250 100.500 C 223.662 100.784,224.000 100.979,224.000 100.933 C 224.000 100.887,223.662 100.617,223.250 100.333 C 222.838 100.050,222.500 99.855,222.500 99.901 M136.833 103.833 L 136.833 107.333 138.667 107.333 L 140.500 107.333 140.500 103.833 L 140.500 100.333 138.667 100.333 L 136.833 100.333 136.833 103.833 M174.406 103.208 L 173.917 103.750 174.458 103.260 C 174.963 102.804,175.077 102.667,174.948 102.667 C 174.919 102.667,174.675 102.910,174.406 103.208 M237.038 105.792 L 237.083 108.917 239.583 108.917 L 242.083 108.917 242.129 105.792 L 242.174 102.667 239.583 102.667 L 236.993 102.667 237.038 105.792 M228.326 104.542 C 229.017 105.278,229.167 105.410,229.167 105.285 C 229.167 105.258,228.810 104.902,228.375 104.493 L 227.583 103.750 228.326 104.542 M171.996 105.458 L 170.583 106.917 172.042 105.504 C 173.396 104.191,173.576 104.000,173.455 104.000 C 173.430 104.000,172.773 104.656,171.996 105.458 M272.944 104.278 C 272.883 104.339,272.833 104.789,272.833 105.278 L 272.833 106.167 273.917 106.167 L 275.000 106.167 275.000 105.167 L 275.000 104.167 274.028 104.167 C 273.493 104.167,273.006 104.217,272.944 104.278 M169.079 108.375 L 167.750 109.750 169.125 108.421 C 170.402 107.186,170.576 107.000,170.454 107.000 C 170.429 107.000,169.811 107.619,169.079 108.375 M231.583 107.833 C 232.035 108.292,232.442 108.667,232.487 108.667 C 232.533 108.667,232.201 108.292,231.750 107.833 C 231.299 107.375,230.892 107.000,230.846 107.000 C 230.800 107.000,231.132 107.375,231.583 107.833 M272.866 108.208 L 272.917 109.083 274.042 109.133 L 275.167 109.182 275.167 108.258 L 275.167 107.333 273.991 107.333 L 272.816 107.333 272.866 108.208 M198.197 108.661 C 180.131 116.521,162.649 137.911,151.854 165.364 L 150.826 167.978 152.071 172.947 C 152.756 175.680,153.583 178.929,153.909 180.167 C 154.235 181.404,154.885 183.879,155.353 185.667 C 158.806 198.854,165.799 222.457,169.032 231.833 C 170.031 234.730,174.686 242.259,175.582 242.427 C 177.033 242.700,177.045 242.738,174.323 238.417 C 172.937 236.217,171.733 234.286,171.647 234.127 C 171.527 233.906,171.796 233.978,172.787 234.433 C 187.999 241.423,204.170 243.076,213.833 238.630 C 214.429 238.356,215.153 238.029,215.442 237.904 L 215.967 237.676 215.465 238.963 C 215.042 240.048,213.780 244.679,213.883 244.767 C 213.902 244.783,214.228 244.847,214.608 244.909 L 215.299 245.023 215.743 243.137 C 216.261 240.942,218.836 234.015,224.808 218.750 C 231.918 200.575,235.021 193.244,235.914 192.502 C 237.142 191.483,239.157 184.208,239.998 177.759 C 242.220 160.711,238.608 146.094,229.819 136.566 C 229.139 135.829,227.833 134.336,226.917 133.247 C 220.285 125.368,211.395 118.515,205.424 116.679 C 202.372 115.741,198.000 115.514,198.000 116.294 C 198.000 116.505,197.820 116.528,196.896 116.433 C 194.439 116.181,190.362 115.998,189.518 116.101 C 188.336 116.246,188.421 116.140,190.793 114.539 C 194.002 112.372,197.273 110.568,200.037 109.441 C 200.644 109.193,200.653 109.176,200.472 108.636 C 200.190 107.790,200.198 107.790,198.197 108.661 M257.778 108.444 C 257.717 108.506,257.667 109.668,257.667 111.028 L 257.667 113.500 258.750 113.500 L 259.833 113.500 259.833 110.917 L 259.833 108.333 258.861 108.333 C 258.326 108.333,257.839 108.383,257.778 108.444 M136.833 109.667 L 136.833 110.500 138.667 110.500 L 140.500 110.500 140.500 109.667 L 140.500 108.833 138.667 108.833 L 136.833 108.833 136.833 109.667 M155.667 118.153 C 155.667 123.187,155.624 127.443,155.572 127.611 C 155.520 127.779,155.891 127.118,156.396 126.143 C 156.901 125.167,157.769 123.604,158.324 122.669 L 159.333 120.969 159.333 114.984 L 159.333 109.000 157.500 109.000 L 155.667 109.000 155.667 118.153 M166.906 110.708 L 166.417 111.250 166.958 110.760 C 167.256 110.491,167.500 110.248,167.500 110.219 C 167.500 110.090,167.362 110.203,166.906 110.708 M237.000 111.750 L 237.000 113.000 239.583 113.000 L 242.167 113.000 242.167 111.750 L 242.167 110.500 239.583 110.500 L 237.000 110.500 237.000 111.750 M284.333 114.667 L 284.333 118.833 286.250 118.833 L 288.167 118.833 288.167 114.667 L 288.167 110.500 286.250 110.500 L 284.333 110.500 284.333 114.667 M272.944 110.944 C 272.883 111.006,272.833 112.274,272.833 113.764 L 272.833 116.472 273.931 116.527 C 275.302 116.597,275.167 116.914,275.167 113.639 L 275.167 110.833 274.111 110.833 C 273.531 110.833,273.006 110.883,272.944 110.944 M112.736 112.227 C 112.688 112.352,112.671 112.896,112.699 113.435 L 112.750 114.417 114.625 114.464 L 116.500 114.511 116.500 113.255 L 116.500 112.000 114.661 112.000 C 113.264 112.000,112.802 112.054,112.736 112.227 M136.833 112.833 L 136.833 113.667 138.667 113.667 L 140.500 113.667 140.500 112.833 L 140.500 112.000 138.667 112.000 L 136.833 112.000 136.833 112.833 M235.833 113.000 C 236.029 113.275,236.227 113.500,236.273 113.500 C 236.319 113.500,236.196 113.275,236.000 113.000 C 235.804 112.725,235.606 112.500,235.561 112.500 C 235.515 112.500,235.638 112.725,235.833 113.000 M237.995 116.083 C 239.104 117.737,240.230 119.625,241.267 121.571 L 242.162 123.250 242.164 119.133 L 242.167 115.017 239.689 114.967 L 237.212 114.917 237.995 116.083 M257.667 116.500 L 257.667 118.000 258.750 118.000 L 259.833 118.000 259.833 116.500 L 259.833 115.000 258.750 115.000 L 257.667 115.000 257.667 116.500 M136.833 119.000 L 136.833 122.500 138.667 122.500 L 140.500 122.500 140.500 119.000 L 140.500 115.500 138.667 115.500 L 136.833 115.500 136.833 119.000 M112.778 116.778 C 112.717 116.839,112.667 118.264,112.667 119.944 L 112.667 123.000 114.583 123.000 L 116.500 123.000 116.500 119.833 L 116.500 116.667 114.694 116.667 C 113.701 116.667,112.839 116.717,112.778 116.778 M197.330 117.920 C 199.850 118.200,200.086 118.254,199.566 118.435 C 198.460 118.818,194.998 120.332,193.441 121.113 C 191.676 121.998,189.857 123.235,182.083 128.837 C 175.970 133.243,171.740 136.224,170.674 136.878 L 169.598 137.539 170.083 136.894 C 175.858 129.222,183.886 120.034,186.417 118.201 C 187.441 117.459,192.105 117.339,197.330 117.920 M206.544 119.904 C 213.111 122.072,222.091 130.355,231.426 142.853 C 232.383 144.135,233.167 145.285,233.167 145.408 C 233.167 145.531,232.195 155.071,231.008 166.608 L 228.849 187.583 227.945 189.926 C 220.821 208.393,208.427 218.168,195.736 215.331 C 183.201 212.528,175.470 204.418,170.185 188.526 C 166.156 176.412,163.805 156.122,165.514 148.222 C 166.785 142.346,168.575 140.315,179.167 132.724 C 180.954 131.443,183.745 129.438,185.368 128.270 C 191.430 123.906,197.842 120.483,201.917 119.435 C 202.723 119.228,205.282 119.487,206.544 119.904 M257.667 120.667 L 257.667 121.500 258.750 121.500 L 259.833 121.500 259.833 120.667 L 259.833 119.833 258.750 119.833 L 257.667 119.833 257.667 120.667 M273.167 134.917 L 273.167 148.833 274.000 148.833 L 274.833 148.833 274.833 134.917 L 274.833 121.000 274.000 121.000 L 273.167 121.000 273.167 134.917 M257.699 123.292 L 257.750 124.083 258.875 124.133 L 260.000 124.182 260.000 123.341 L 260.000 122.500 258.824 122.500 L 257.648 122.500 257.699 123.292 M300.035 124.375 L 300.083 125.917 301.958 125.964 L 303.833 126.011 303.833 124.422 L 303.833 122.833 301.910 122.833 L 299.987 122.833 300.035 124.375 M136.833 127.333 L 136.833 130.833 138.667 130.833 L 140.500 130.833 140.500 127.333 L 140.500 123.833 138.667 123.833 L 136.833 123.833 136.833 127.333 M112.667 125.000 L 112.667 125.667 114.583 125.667 L 116.500 125.667 116.500 125.000 L 116.500 124.333 114.583 124.333 L 112.667 124.333 112.667 125.000 M284.333 125.417 L 284.333 126.333 286.250 126.333 L 288.167 126.333 288.167 125.417 L 288.167 124.500 286.250 124.500 L 284.333 124.500 284.333 125.417 M257.785 125.604 C 257.720 125.669,257.667 126.797,257.667 128.111 L 257.667 130.500 258.838 130.500 L 260.009 130.500 259.963 128.042 L 259.917 125.583 258.910 125.535 C 258.356 125.508,257.850 125.539,257.785 125.604 M243.345 125.750 C 243.345 125.842,243.452 126.104,243.583 126.333 C 243.714 126.563,243.822 126.675,243.822 126.583 C 243.822 126.492,243.714 126.229,243.583 126.000 C 243.452 125.771,243.345 125.658,243.345 125.750 M112.783 127.106 C 112.719 127.170,112.667 127.510,112.667 127.861 L 112.667 128.500 114.593 128.500 L 116.519 128.500 116.468 127.792 L 116.417 127.083 114.658 127.036 C 113.691 127.011,112.847 127.042,112.783 127.106 M244.012 127.250 C 244.012 127.342,244.119 127.604,244.250 127.833 C 244.381 128.063,244.488 128.175,244.488 128.083 C 244.488 127.992,244.381 127.729,244.250 127.500 C 244.119 127.271,244.012 127.158,244.012 127.250 M126.333 129.917 L 126.333 132.000 127.417 132.000 L 128.500 132.000 128.500 129.917 L 128.500 127.833 127.417 127.833 L 126.333 127.833 126.333 129.917 M244.512 128.417 C 244.512 128.508,244.619 128.771,244.750 129.000 C 244.881 129.229,244.988 129.342,244.988 129.250 C 244.988 129.158,244.881 128.896,244.750 128.667 C 244.619 128.438,244.512 128.325,244.512 128.417 M300.000 132.917 L 300.000 137.000 301.917 137.000 L 303.833 137.000 303.833 132.917 L 303.833 128.833 301.917 128.833 L 300.000 128.833 300.000 132.917 M154.694 129.424 C 154.414 130.037,154.468 130.167,154.770 129.610 C 154.911 129.350,154.995 129.106,154.957 129.068 C 154.919 129.030,154.800 129.190,154.694 129.424 M112.667 133.417 L 112.667 136.500 114.583 136.500 L 116.500 136.500 116.500 133.417 L 116.500 130.333 114.583 130.333 L 112.667 130.333 112.667 133.417 M284.333 134.667 L 284.333 138.833 286.250 138.833 L 288.167 138.833 288.167 134.667 L 288.167 130.500 286.250 130.500 L 284.333 130.500 284.333 134.667 M136.868 133.958 L 136.917 135.250 138.708 135.297 L 140.500 135.345 140.500 134.006 L 140.500 132.667 138.660 132.667 L 136.819 132.667 136.868 133.958 M126.333 134.583 L 126.333 135.833 127.417 135.833 L 128.500 135.833 128.500 134.583 L 128.500 133.333 127.417 133.333 L 126.333 133.333 126.333 134.583 M258.000 146.583 L 258.000 158.667 258.833 158.667 L 259.667 158.667 259.667 146.583 L 259.667 134.500 258.833 134.500 L 258.000 134.500 258.000 146.583 M87.167 137.250 L 87.167 138.500 89.083 138.500 L 91.000 138.500 91.000 137.250 L 91.000 136.000 89.083 136.000 L 87.167 136.000 87.167 137.250 M126.333 138.083 L 126.333 138.833 127.417 138.833 L 128.500 138.833 128.500 138.083 L 128.500 137.333 127.417 137.333 L 126.333 137.333 126.333 138.083 M136.833 140.833 L 136.833 144.333 138.667 144.333 L 140.500 144.333 140.500 140.833 L 140.500 137.333 138.667 137.333 L 136.833 137.333 136.833 140.833 M112.778 137.778 C 112.717 137.839,112.667 139.264,112.667 140.944 L 112.667 144.000 114.583 144.000 L 116.500 144.000 116.500 140.833 L 116.500 137.667 114.694 137.667 C 113.701 137.667,112.839 137.717,112.778 137.778 M300.033 139.792 L 300.083 140.750 301.958 140.797 L 303.833 140.844 303.833 139.839 L 303.833 138.833 301.908 138.833 L 299.983 138.833 300.033 139.792 M126.402 139.728 C 126.069 140.595,126.367 140.917,127.500 140.917 L 128.583 140.917 128.583 140.250 L 128.583 139.583 127.540 139.534 C 126.743 139.496,126.473 139.542,126.402 139.728 M284.333 144.667 L 284.333 148.833 286.250 148.833 L 288.167 148.833 288.167 144.667 L 288.167 140.500 286.250 140.500 L 284.333 140.500 284.333 144.667 M87.167 143.750 L 87.167 146.833 89.083 146.833 L 91.000 146.833 91.000 143.750 L 91.000 140.667 89.083 140.667 L 87.167 140.667 87.167 143.750 M126.451 142.271 C 126.387 142.336,126.333 143.276,126.333 144.361 L 126.333 146.333 127.505 146.333 L 128.677 146.333 128.630 144.292 L 128.583 142.250 127.576 142.201 C 127.023 142.174,126.516 142.206,126.451 142.271 M300.068 142.731 C 300.019 142.858,300.002 143.289,300.031 143.689 L 300.083 144.417 301.958 144.464 L 303.833 144.511 303.833 143.505 L 303.833 142.500 301.995 142.500 C 300.582 142.500,300.136 142.553,300.068 142.731 M311.667 143.667 L 311.667 144.833 313.500 144.833 L 315.333 144.833 315.333 143.667 L 315.333 142.500 313.500 142.500 L 311.667 142.500 311.667 143.667 M112.736 145.894 C 112.688 146.019,112.671 146.562,112.699 147.102 L 112.750 148.083 114.625 148.130 L 116.500 148.178 116.500 146.922 L 116.500 145.667 114.661 145.667 C 113.264 145.667,112.802 145.721,112.736 145.894 M236.144 149.868 C 239.836 159.989,240.156 173.167,237.010 185.562 C 236.150 188.950,235.429 190.875,234.750 191.595 C 233.812 192.589,230.841 199.405,226.245 211.104 C 223.511 218.063,223.784 217.501,223.409 216.929 C 222.587 215.673,222.253 210.634,222.661 205.619 L 222.862 203.155 224.030 201.286 C 225.552 198.853,227.862 194.127,229.221 190.667 L 230.301 187.917 231.328 177.917 C 231.892 172.417,232.760 163.942,233.256 159.083 C 234.665 145.280,234.537 146.064,235.168 147.451 C 235.427 148.020,235.866 149.108,236.144 149.868 M102.167 149.500 L 102.167 152.333 103.250 152.333 L 104.333 152.333 104.333 149.500 L 104.333 146.667 103.250 146.667 L 102.167 146.667 102.167 149.500 M300.075 146.878 C 300.030 146.995,300.014 148.851,300.039 151.003 L 300.083 154.917 301.958 154.964 L 303.833 155.011 303.833 150.839 L 303.833 146.667 301.995 146.667 C 300.662 146.667,300.134 146.725,300.075 146.878 M311.667 150.167 L 311.667 153.333 313.500 153.333 L 315.333 153.333 315.333 150.167 L 315.333 147.000 313.500 147.000 L 311.667 147.000 311.667 150.167 M163.145 148.421 C 162.806 149.742,162.765 155.477,163.079 157.687 C 163.270 159.024,163.331 160.120,163.261 160.900 C 162.594 168.253,165.846 184.036,170.157 194.371 L 170.694 195.659 170.505 198.121 C 169.954 205.289,168.536 209.882,166.220 211.998 C 165.716 212.459,165.241 212.796,165.163 212.748 C 164.995 212.644,165.177 213.277,161.939 201.500 C 156.325 181.076,153.333 169.163,153.333 167.232 C 153.333 165.530,156.100 159.859,161.130 151.250 C 163.546 147.116,163.443 147.260,163.145 148.421 M87.167 148.917 L 87.167 149.667 89.083 149.667 L 91.000 149.667 91.000 148.917 L 91.000 148.167 89.083 148.167 L 87.167 148.167 87.167 148.917 M126.667 159.750 L 126.667 169.833 127.500 169.833 L 128.333 169.833 128.333 159.750 L 128.333 149.667 127.500 149.667 L 126.667 149.667 126.667 159.750 M136.833 153.333 L 136.833 156.833 138.667 156.833 L 140.500 156.833 140.500 153.333 L 140.500 149.833 138.667 149.833 L 136.833 149.833 136.833 153.333 M112.778 150.111 C 112.717 150.172,112.667 151.597,112.667 153.278 L 112.667 156.333 114.583 156.333 L 116.500 156.333 116.500 153.167 L 116.500 150.000 114.694 150.000 C 113.701 150.000,112.839 150.050,112.778 150.111 M284.333 152.583 L 284.333 154.167 286.250 154.167 L 288.167 154.167 288.167 152.583 L 288.167 151.000 286.250 151.000 L 284.333 151.000 284.333 152.583 M87.167 151.833 L 87.167 152.500 89.083 152.500 L 91.000 152.500 91.000 151.833 L 91.000 151.167 89.083 151.167 L 87.167 151.167 87.167 151.833 M148.039 153.500 C 148.039 153.821,148.073 153.952,148.115 153.792 C 148.157 153.631,148.157 153.369,148.115 153.208 C 148.073 153.048,148.039 153.179,148.039 153.500 M272.871 156.542 L 272.917 159.417 273.958 159.466 L 275.000 159.516 275.000 156.591 L 275.000 153.667 273.913 153.667 L 272.825 153.667 272.871 156.542 M87.278 154.278 C 87.217 154.339,87.167 155.764,87.167 157.444 L 87.167 160.500 89.083 160.500 L 91.000 160.500 91.000 157.333 L 91.000 154.167 89.194 154.167 C 88.201 154.167,87.339 154.217,87.278 154.278 M102.203 155.958 L 102.250 157.750 103.292 157.800 L 104.333 157.849 104.333 156.008 L 104.333 154.167 103.244 154.167 L 102.155 154.167 102.203 155.958 M252.235 157.000 C 252.235 158.512,252.260 159.131,252.291 158.375 C 252.322 157.619,252.322 156.381,252.291 155.625 C 252.260 154.869,252.235 155.487,252.235 157.000 M147.872 155.000 C 147.872 155.321,147.906 155.452,147.948 155.292 C 147.990 155.131,147.990 154.869,147.948 154.708 C 147.906 154.548,147.872 154.679,147.872 155.000 M311.667 155.417 L 311.667 156.167 313.500 156.167 L 315.333 156.167 315.333 155.417 L 315.333 154.667 313.500 154.667 L 311.667 154.667 311.667 155.417 M147.717 157.000 C 147.717 157.504,147.748 157.710,147.786 157.458 C 147.824 157.206,147.824 156.794,147.786 156.542 C 147.748 156.290,147.717 156.496,147.717 157.000 M284.333 159.333 L 284.333 162.333 286.250 162.333 L 288.167 162.333 288.167 159.333 L 288.167 156.333 286.250 156.333 L 284.333 156.333 284.333 159.333 M300.039 160.625 L 300.083 164.750 301.958 164.797 L 303.833 164.844 303.833 160.672 L 303.833 156.500 301.914 156.500 L 299.994 156.500 300.039 160.625 M311.667 158.250 L 311.667 159.000 313.500 159.000 L 315.333 159.000 315.333 158.250 L 315.333 157.500 313.500 157.500 L 311.667 157.500 311.667 158.250 M147.558 159.667 C 147.558 160.446,147.587 160.765,147.622 160.375 C 147.657 159.985,147.657 159.348,147.622 158.958 C 147.587 158.569,147.558 158.887,147.558 159.667 M102.167 160.750 L 102.167 161.667 103.250 161.667 L 104.333 161.667 104.333 160.750 L 104.333 159.833 103.250 159.833 L 102.167 159.833 102.167 160.750 M311.667 163.833 L 311.667 167.000 313.500 167.000 L 315.333 167.000 315.333 163.833 L 315.333 160.667 313.500 160.667 L 311.667 160.667 311.667 163.833 M252.048 161.750 C 252.049 162.208,252.081 162.376,252.120 162.123 C 252.158 161.869,252.157 161.494,252.117 161.289 C 252.078 161.084,252.046 161.292,252.048 161.750 M272.944 161.111 C 272.883 161.172,272.833 161.997,272.833 162.944 L 272.833 164.667 273.917 164.667 L 275.000 164.667 275.000 162.833 L 275.000 161.000 274.028 161.000 C 273.493 161.000,273.006 161.050,272.944 161.111 M112.741 161.381 C 112.695 161.499,112.679 162.905,112.704 164.506 L 112.750 167.417 114.625 167.464 L 116.500 167.511 116.500 164.339 L 116.500 161.167 114.661 161.167 C 113.318 161.167,112.801 161.224,112.741 161.381 M136.833 162.167 L 136.833 163.000 138.667 163.000 L 140.500 163.000 140.500 162.167 L 140.500 161.333 138.667 161.333 L 136.833 161.333 136.833 162.167 M87.278 161.778 C 87.217 161.839,87.167 163.264,87.167 164.944 L 87.167 168.000 89.083 168.000 L 91.000 168.000 91.000 164.833 L 91.000 161.667 89.194 161.667 C 88.201 161.667,87.339 161.717,87.278 161.778 M257.778 162.778 C 257.717 162.839,257.667 164.001,257.667 165.361 L 257.667 167.833 258.750 167.833 L 259.833 167.833 259.833 165.250 L 259.833 162.667 258.861 162.667 C 258.326 162.667,257.839 162.717,257.778 162.778 M102.333 163.750 L 102.333 164.667 103.417 164.667 L 104.500 164.667 104.500 163.750 L 104.500 162.833 103.417 162.833 L 102.333 162.833 102.333 163.750 M251.875 163.917 C 251.877 164.283,251.911 164.414,251.951 164.206 C 251.991 163.999,251.990 163.699,251.948 163.540 C 251.906 163.380,251.874 163.550,251.875 163.917 M284.371 166.542 L 284.417 169.583 286.250 169.583 L 288.083 169.583 288.129 166.542 L 288.174 163.500 286.250 163.500 L 284.326 163.500 284.371 166.542 M147.039 165.000 C 147.039 165.321,147.073 165.452,147.115 165.292 C 147.157 165.131,147.157 164.869,147.115 164.708 C 147.073 164.548,147.039 164.679,147.039 165.000 M251.705 165.833 C 251.705 166.154,251.740 166.285,251.782 166.125 C 251.823 165.965,251.823 165.702,251.782 165.542 C 251.740 165.381,251.705 165.512,251.705 165.833 M146.875 166.417 C 146.877 166.783,146.911 166.914,146.951 166.706 C 146.991 166.499,146.990 166.199,146.948 166.040 C 146.906 165.880,146.874 166.050,146.875 166.417 M102.333 169.258 L 102.333 172.183 103.375 172.133 L 104.417 172.083 104.462 169.208 L 104.508 166.333 103.421 166.333 L 102.333 166.333 102.333 169.258 M136.833 169.833 L 136.833 173.333 138.667 173.333 L 140.500 173.333 140.500 169.833 L 140.500 166.333 138.667 166.333 L 136.833 166.333 136.833 169.833 M272.833 167.750 L 272.833 168.667 273.917 168.667 L 275.000 168.667 275.000 167.750 L 275.000 166.833 273.917 166.833 L 272.833 166.833 272.833 167.750 M300.111 166.944 C 300.050 167.006,300.000 167.718,300.000 168.528 L 300.000 170.000 301.917 170.000 L 303.833 170.000 303.833 168.417 L 303.833 166.833 302.028 166.833 C 301.035 166.833,300.172 166.883,300.111 166.944 M146.712 168.000 C 146.712 168.412,146.745 168.581,146.784 168.375 C 146.824 168.169,146.824 167.831,146.784 167.625 C 146.745 167.419,146.712 167.587,146.712 168.000 M311.667 171.333 L 311.667 174.500 313.500 174.500 L 315.333 174.500 315.333 171.333 L 315.333 168.167 313.500 168.167 L 311.667 168.167 311.667 171.333 M146.550 170.000 C 146.550 170.504,146.581 170.710,146.619 170.458 C 146.658 170.206,146.658 169.794,146.619 169.542 C 146.581 169.290,146.550 169.496,146.550 170.000 M257.785 169.271 C 257.720 169.336,257.667 170.051,257.667 170.861 L 257.667 172.333 258.756 172.333 L 259.846 172.333 259.798 170.792 L 259.750 169.250 258.827 169.201 C 258.319 169.174,257.850 169.205,257.785 169.271 M87.167 170.833 L 87.167 172.000 89.083 172.000 L 91.000 172.000 91.000 170.833 L 91.000 169.667 89.083 169.667 L 87.167 169.667 87.167 170.833 M273.167 197.750 L 273.167 224.500 274.000 224.500 L 274.833 224.500 274.833 197.750 L 274.833 171.000 274.000 171.000 L 273.167 171.000 273.167 197.750 M146.390 172.583 C 146.391 173.317,146.420 173.596,146.456 173.204 C 146.491 172.812,146.490 172.212,146.454 171.871 C 146.419 171.529,146.390 171.850,146.390 172.583 M112.732 171.903 C 112.683 172.032,112.666 172.351,112.696 172.611 L 112.750 173.083 114.625 173.130 L 116.500 173.178 116.500 172.422 L 116.500 171.667 114.661 171.667 C 113.230 171.667,112.803 171.719,112.732 171.903 M284.409 171.875 C 284.363 171.997,284.346 173.368,284.371 174.923 L 284.417 177.750 286.295 177.797 L 288.174 177.844 288.129 174.797 L 288.083 171.750 286.289 171.703 C 284.921 171.667,284.474 171.708,284.409 171.875 M96.500 175.000 L 96.500 178.167 97.667 178.167 L 98.833 178.167 98.833 175.000 L 98.833 171.833 97.667 171.833 L 96.500 171.833 96.500 175.000 M300.208 172.608 C 300.050 172.674,300.000 173.666,300.000 176.764 L 300.000 180.833 301.920 180.833 L 303.839 180.833 303.795 176.708 L 303.750 172.583 302.083 172.552 C 301.167 172.535,300.323 172.560,300.208 172.608 M126.333 175.500 L 126.333 177.667 127.417 177.667 L 128.500 177.667 128.500 175.500 L 128.500 173.333 127.417 173.333 L 126.333 173.333 126.333 175.500 M87.167 177.083 L 87.167 180.167 89.083 180.167 L 91.000 180.167 91.000 177.083 L 91.000 174.000 89.083 174.000 L 87.167 174.000 87.167 177.083 M257.667 175.000 L 257.667 175.833 258.750 175.833 L 259.833 175.833 259.833 175.000 L 259.833 174.167 258.750 174.167 L 257.667 174.167 257.667 175.000 M136.833 178.167 L 136.833 181.667 138.667 181.667 L 140.500 181.667 140.500 178.167 L 140.500 174.667 138.667 174.667 L 136.833 174.667 136.833 178.167 M146.237 178.333 C 146.237 180.304,146.262 181.110,146.291 180.125 C 146.321 179.140,146.321 177.527,146.291 176.542 C 146.262 175.556,146.237 176.362,146.237 178.333 M311.667 177.244 L 311.667 178.500 313.507 178.500 L 315.348 178.500 315.299 177.292 L 315.250 176.083 313.458 176.036 L 311.667 175.989 311.667 177.244 M112.705 179.292 L 112.750 182.417 114.583 182.417 L 116.417 182.417 116.462 179.292 L 116.507 176.167 114.583 176.167 L 112.659 176.167 112.705 179.292 M102.500 190.500 L 102.500 204.333 103.333 204.333 L 104.167 204.333 104.167 190.500 L 104.167 176.667 103.333 176.667 L 102.500 176.667 102.500 190.500 M126.333 180.167 L 126.333 181.500 127.417 181.500 L 128.500 181.500 128.500 180.167 L 128.500 178.833 127.417 178.833 L 126.333 178.833 126.333 180.167 M284.371 182.042 L 284.417 185.083 286.250 185.083 L 288.083 185.083 288.129 182.042 L 288.174 179.000 286.250 179.000 L 284.326 179.000 284.371 182.042 M257.740 179.383 C 257.694 179.503,257.678 180.609,257.703 181.842 L 257.750 184.083 258.875 184.133 L 260.000 184.182 260.000 181.674 L 260.000 179.167 258.911 179.167 C 258.172 179.167,257.796 179.236,257.740 179.383 M311.667 183.500 L 311.667 186.667 313.500 186.667 L 315.333 186.667 315.333 183.500 L 315.333 180.333 313.500 180.333 L 311.667 180.333 311.667 183.500 M96.500 182.917 L 96.500 183.667 97.667 183.667 L 98.833 183.667 98.833 182.917 L 98.833 182.167 97.667 182.167 L 96.500 182.167 96.500 182.917 M126.333 183.667 L 126.333 184.333 127.417 184.333 L 128.500 184.333 128.500 183.667 L 128.500 183.000 127.417 183.000 L 126.333 183.000 126.333 183.667 M146.390 184.250 C 146.391 184.983,146.420 185.263,146.456 184.871 C 146.491 184.479,146.490 183.879,146.454 183.537 C 146.419 183.196,146.390 183.517,146.390 184.250 M136.833 184.833 L 136.833 186.167 138.667 186.167 L 140.500 186.167 140.500 184.833 L 140.500 183.500 138.667 183.500 L 136.833 183.500 136.833 184.833 M112.667 186.750 L 112.667 189.833 114.583 189.833 L 116.500 189.833 116.500 186.750 L 116.500 183.667 114.583 183.667 L 112.667 183.667 112.667 186.750 M87.167 188.333 L 87.167 191.500 89.083 191.500 L 91.000 191.500 91.000 188.333 L 91.000 185.167 89.083 185.167 L 87.167 185.167 87.167 188.333 M126.667 205.324 C 126.667 215.963,126.711 224.667,126.764 224.667 C 126.818 224.667,127.194 224.429,127.598 224.138 L 128.335 223.609 128.292 204.846 L 128.250 186.083 127.458 186.033 L 126.667 185.982 126.667 205.324 M146.548 186.917 C 146.549 187.375,146.581 187.543,146.620 187.289 C 146.658 187.036,146.657 186.661,146.617 186.456 C 146.578 186.251,146.546 186.458,146.548 186.917 M96.611 186.778 C 96.550 186.839,96.500 188.264,96.500 189.944 L 96.500 193.000 97.667 193.000 L 98.833 193.000 98.833 189.833 L 98.833 186.667 97.778 186.667 C 97.197 186.667,96.672 186.717,96.611 186.778 M257.778 186.778 C 257.717 186.839,257.667 189.576,257.667 192.861 L 257.667 198.833 258.833 198.833 L 260.000 198.833 260.000 192.750 L 260.000 186.667 258.944 186.667 C 258.364 186.667,257.839 186.717,257.778 186.778 M284.367 187.792 L 284.417 188.917 286.250 188.917 L 288.083 188.917 288.133 187.792 L 288.182 186.667 286.250 186.667 L 284.318 186.667 284.367 187.792 M300.077 187.373 C 300.031 187.492,300.014 189.351,300.039 191.503 L 300.083 195.417 301.961 195.464 L 303.839 195.511 303.795 191.380 L 303.750 187.250 301.955 187.203 C 300.598 187.167,300.140 187.208,300.077 187.373 M136.908 188.380 C 136.863 188.497,136.846 190.091,136.871 191.921 L 136.917 195.250 138.708 195.297 L 140.500 195.345 140.500 191.756 L 140.500 188.167 138.745 188.167 C 137.474 188.167,136.967 188.225,136.908 188.380 M146.712 189.000 C 146.712 189.412,146.745 189.581,146.784 189.375 C 146.824 189.169,146.824 188.831,146.784 188.625 C 146.745 188.419,146.712 188.588,146.712 189.000 M248.709 189.583 C 248.711 189.950,248.745 190.080,248.785 189.873 C 248.824 189.666,248.823 189.366,248.781 189.206 C 248.739 189.047,248.707 189.217,248.709 189.583 M146.875 190.583 C 146.877 190.950,146.911 191.080,146.951 190.873 C 146.991 190.666,146.990 190.366,146.948 190.206 C 146.906 190.047,146.874 190.217,146.875 190.583 M284.368 192.542 L 284.417 193.917 286.250 193.917 L 288.083 193.917 288.132 192.542 L 288.180 191.167 286.250 191.167 L 284.320 191.167 284.368 192.542 M112.701 192.708 L 112.750 193.917 114.625 193.964 L 116.500 194.011 116.500 192.755 L 116.500 191.500 114.576 191.500 L 112.652 191.500 112.701 192.708 M147.042 192.083 C 147.044 192.450,147.078 192.580,147.118 192.373 C 147.158 192.166,147.156 191.866,147.115 191.706 C 147.073 191.547,147.040 191.717,147.042 192.083 M248.539 192.167 C 248.539 192.487,248.573 192.619,248.615 192.458 C 248.657 192.298,248.657 192.035,248.615 191.875 C 248.573 191.715,248.539 191.846,248.539 192.167 M311.667 194.750 L 311.667 197.833 313.500 197.833 L 315.333 197.833 315.333 194.750 L 315.333 191.667 313.500 191.667 L 311.667 191.667 311.667 194.750 M96.500 197.333 L 96.500 200.500 97.667 200.500 L 98.833 200.500 98.833 197.333 L 98.833 194.167 97.667 194.167 L 96.500 194.167 96.500 197.333 M284.406 195.384 C 284.358 195.510,284.340 196.206,284.368 196.931 L 284.417 198.250 286.250 198.250 L 288.083 198.250 288.083 196.750 L 288.083 195.250 286.289 195.203 C 284.888 195.166,284.475 195.206,284.406 195.384 M87.167 196.333 L 87.167 197.000 89.083 197.000 L 91.000 197.000 91.000 196.333 L 91.000 195.667 89.083 195.667 L 87.167 195.667 87.167 196.333 M112.741 196.048 C 112.695 196.165,112.679 197.572,112.704 199.173 L 112.750 202.083 114.625 202.130 L 116.500 202.178 116.500 199.005 L 116.500 195.833 114.661 195.833 C 113.318 195.833,112.801 195.891,112.741 196.048 M173.413 199.769 C 179.983 211.921,187.645 217.418,198.000 217.408 C 207.463 217.399,214.546 213.772,220.991 205.633 C 221.042 205.569,221.084 207.557,221.084 210.050 C 221.084 214.882,221.245 216.175,222.007 217.465 C 222.186 217.770,222.333 218.098,222.333 218.194 C 222.333 218.697,216.743 235.447,216.516 235.624 C 215.163 236.679,210.698 238.385,207.740 238.976 C 197.899 240.944,183.802 238.334,171.827 232.328 L 170.570 231.698 168.521 223.186 L 166.472 214.674 167.391 213.416 C 169.843 210.058,171.727 204.936,172.341 199.958 C 172.581 198.007,172.471 198.027,173.413 199.769 M87.167 203.250 L 87.167 206.333 89.083 206.333 L 91.000 206.333 91.000 203.250 L 91.000 200.167 89.083 200.167 L 87.167 200.167 87.167 203.250 M136.833 204.167 L 136.833 207.667 138.667 207.667 L 140.500 207.667 140.500 204.167 L 140.500 200.667 138.667 200.667 L 136.833 200.667 136.833 204.167 M300.033 201.958 L 300.083 202.917 301.958 202.964 L 303.833 203.011 303.833 202.005 L 303.833 201.000 301.908 201.000 L 299.983 201.000 300.033 201.958 M258.000 210.750 C 258.000 216.021,257.958 220.333,257.906 220.333 C 257.854 220.333,257.666 220.256,257.489 220.161 C 257.312 220.066,257.167 220.023,257.167 220.066 C 257.167 220.109,257.710 220.420,258.375 220.757 C 259.040 221.094,259.696 221.452,259.833 221.552 C 260.040 221.703,260.047 221.694,259.875 221.500 C 259.713 221.319,259.667 219.021,259.667 211.217 L 259.667 201.167 258.833 201.167 L 258.000 201.167 258.000 210.750 M311.667 202.750 L 311.667 203.500 313.500 203.500 L 315.333 203.500 315.333 202.750 L 315.333 202.000 313.500 202.000 L 311.667 202.000 311.667 202.750 M96.500 203.333 L 96.500 204.500 97.667 204.500 L 98.833 204.500 98.833 203.333 L 98.833 202.167 97.667 202.167 L 96.500 202.167 96.500 203.333 M284.333 208.917 L 284.333 214.000 286.250 214.000 L 288.167 214.000 288.167 208.917 L 288.167 203.833 286.250 203.833 L 284.333 203.833 284.333 208.917 M96.500 208.417 L 96.500 210.667 97.667 210.667 L 98.833 210.667 98.833 208.417 L 98.833 206.167 97.667 206.167 L 96.500 206.167 96.500 208.417 M311.667 209.672 L 311.667 212.845 313.458 212.797 L 315.250 212.750 315.295 209.625 L 315.341 206.500 313.504 206.500 L 311.667 206.500 311.667 209.672 M300.075 207.045 C 300.030 207.162,300.014 209.018,300.039 211.170 L 300.083 215.083 301.958 215.130 L 303.833 215.178 303.833 211.005 L 303.833 206.833 301.995 206.833 C 300.662 206.833,300.134 206.892,300.075 207.045 M112.705 210.125 L 112.750 213.250 114.625 213.297 L 116.500 213.344 116.500 210.172 L 116.500 207.000 114.580 207.000 L 112.659 207.000 112.705 210.125 M87.167 210.667 L 87.167 213.833 89.083 213.833 L 91.000 213.833 91.000 210.667 L 91.000 207.500 89.083 207.500 L 87.167 207.500 87.167 210.667 M102.167 212.000 L 102.167 214.833 103.250 214.833 L 104.333 214.833 104.333 212.000 L 104.333 209.167 103.250 209.167 L 102.167 209.167 102.167 212.000 M96.500 213.750 L 96.500 216.000 97.667 216.000 L 98.833 216.000 98.833 213.750 L 98.833 211.500 97.667 211.500 L 96.500 211.500 96.500 213.750 M148.667 212.250 C 148.438 212.381,148.325 212.488,148.417 212.488 C 148.508 212.488,148.771 212.381,149.000 212.250 C 149.229 212.119,149.342 212.012,149.250 212.012 C 149.158 212.012,148.896 212.119,148.667 212.250 M136.833 213.083 L 136.833 213.833 138.667 213.833 L 140.500 213.833 140.500 213.083 L 140.500 212.333 138.667 212.333 L 136.833 212.333 136.833 213.083 M147.500 212.750 C 147.271 212.881,147.158 212.988,147.250 212.988 C 147.342 212.988,147.604 212.881,147.833 212.750 C 148.063 212.619,148.175 212.512,148.083 212.512 C 147.992 212.512,147.729 212.619,147.500 212.750 M145.667 213.583 C 145.438 213.714,145.325 213.822,145.417 213.822 C 145.508 213.822,145.771 213.714,146.000 213.583 C 146.229 213.452,146.342 213.345,146.250 213.345 C 146.158 213.345,145.896 213.452,145.667 213.583 M311.667 217.167 L 311.667 220.333 313.500 220.333 L 315.333 220.333 315.333 217.167 L 315.333 214.000 313.500 214.000 L 311.667 214.000 311.667 217.167 M87.167 216.667 L 87.167 217.833 89.083 217.833 L 91.000 217.833 91.000 216.667 L 91.000 215.500 89.083 215.500 L 87.167 215.500 87.167 216.667 M284.333 220.333 L 284.333 224.500 286.250 224.500 L 288.167 224.500 288.167 220.333 L 288.167 216.167 286.250 216.167 L 284.333 216.167 284.333 220.333 M102.203 218.458 L 102.250 220.250 103.292 220.300 L 104.333 220.349 104.333 218.508 L 104.333 216.667 103.244 216.667 L 102.155 216.667 102.203 218.458 M300.000 220.750 L 300.000 224.833 301.917 224.833 L 303.833 224.833 303.833 220.750 L 303.833 216.667 301.917 216.667 L 300.000 216.667 300.000 220.750 M112.667 218.250 L 112.667 219.000 114.583 219.000 L 116.500 219.000 116.500 218.250 L 116.500 217.500 114.583 217.500 L 112.667 217.500 112.667 218.250 M96.500 219.917 L 96.500 222.167 97.667 222.167 L 98.833 222.167 98.833 219.917 L 98.833 217.667 97.667 217.667 L 96.500 217.667 96.500 219.917 M87.205 222.958 L 87.250 226.083 89.125 226.130 L 91.000 226.178 91.000 223.005 L 91.000 219.833 89.080 219.833 L 87.159 219.833 87.205 222.958 M112.778 221.778 C 112.717 221.839,112.667 222.664,112.667 223.611 L 112.667 225.333 114.583 225.333 L 116.500 225.333 116.500 223.500 L 116.500 221.667 114.694 221.667 C 113.701 221.667,112.839 221.717,112.778 221.778 M130.289 222.089 C 129.947 222.322,129.667 222.548,129.667 222.592 C 129.667 222.636,129.967 222.473,130.333 222.230 C 130.916 221.845,131.112 221.667,130.955 221.667 C 130.931 221.667,130.631 221.857,130.289 222.089 M311.667 223.078 L 311.667 224.333 313.507 224.333 L 315.348 224.333 315.299 223.125 L 315.250 221.917 313.458 221.869 L 311.667 221.822 311.667 223.078 M102.167 223.250 L 102.167 224.167 103.250 224.167 L 104.333 224.167 104.333 223.250 L 104.333 222.333 103.250 222.333 L 102.167 222.333 102.167 223.250 M96.500 225.333 L 96.500 227.667 97.667 227.667 L 98.833 227.667 98.833 225.333 L 98.833 223.000 97.667 223.000 L 96.500 223.000 96.500 225.333 M311.667 229.375 L 311.667 232.500 313.504 232.500 L 315.341 232.500 315.295 229.404 L 315.250 226.309 313.458 226.279 L 311.667 226.250 311.667 229.375 M102.500 250.250 L 102.500 274.000 103.333 274.000 L 104.167 274.000 104.167 250.250 L 104.167 226.500 103.333 226.500 L 102.500 226.500 102.500 250.250 M284.334 230.625 L 284.334 234.583 285.084 235.057 C 286.105 235.702,286.930 236.692,287.603 238.079 L 288.167 239.241 288.167 232.954 L 288.167 226.667 286.250 226.667 L 284.333 226.667 284.334 230.625 M300.111 227.111 C 300.050 227.172,300.000 227.883,300.000 228.691 C 300.000 230.430,299.923 230.375,302.250 230.299 L 303.750 230.250 303.798 228.625 L 303.845 227.000 302.034 227.000 C 301.037 227.000,300.172 227.050,300.111 227.111 M96.500 229.667 L 96.500 230.500 97.667 230.500 L 98.833 230.500 98.833 229.667 L 98.833 228.833 97.667 228.833 L 96.500 228.833 96.500 229.667 M273.333 230.249 C 273.333 230.362,274.687 231.035,274.762 230.960 C 274.797 230.925,274.490 230.733,274.080 230.534 C 273.669 230.334,273.333 230.206,273.333 230.249 M87.167 234.167 L 87.167 237.333 89.083 237.333 L 91.000 237.333 91.000 234.167 L 91.000 231.000 89.083 231.000 L 87.167 231.000 87.167 234.167 M110.575 232.542 L 109.917 233.250 110.625 232.591 C 111.284 231.978,111.410 231.833,111.284 231.833 C 111.257 231.833,110.938 232.152,110.575 232.542 M96.500 233.167 L 96.500 234.167 97.667 234.167 L 98.833 234.167 98.833 233.167 L 98.833 232.167 97.667 232.167 L 96.500 232.167 96.500 233.167 M300.111 232.778 C 300.050 232.839,300.000 234.714,300.000 236.944 L 300.000 241.000 301.917 241.000 L 303.833 241.000 303.833 236.833 L 303.833 232.667 302.028 232.667 C 301.035 232.667,300.172 232.717,300.111 232.778 M96.500 236.333 L 96.500 237.500 97.667 237.500 L 98.833 237.500 98.833 236.333 L 98.833 235.167 97.667 235.167 L 96.500 235.167 96.500 236.333 M311.667 240.583 L 311.667 243.667 313.500 243.667 L 315.333 243.667 315.333 240.583 L 315.333 237.500 313.500 237.500 L 311.667 237.500 311.667 240.583 M288.357 240.000 C 288.357 240.137,288.421 240.400,288.500 240.583 C 288.590 240.793,288.643 240.824,288.643 240.667 C 288.643 240.529,288.579 240.267,288.500 240.083 C 288.410 239.873,288.357 239.842,288.357 240.000 M87.199 242.208 L 87.250 242.917 89.083 242.917 L 90.917 242.917 90.968 242.208 L 91.019 241.500 89.083 241.500 L 87.148 241.500 87.199 242.208 M96.500 245.500 L 96.500 249.333 97.667 249.333 L 98.833 249.333 98.833 245.500 L 98.833 241.667 97.667 241.667 L 96.500 241.667 96.500 245.500 M289.564 246.917 C 289.564 248.017,289.591 248.445,289.624 247.868 C 289.656 247.292,289.656 246.392,289.623 245.868 C 289.590 245.345,289.563 245.817,289.564 246.917 M87.167 247.500 L 87.167 249.333 89.083 249.333 L 91.000 249.333 91.000 247.500 L 91.000 245.667 89.083 245.667 L 87.167 245.667 87.167 247.500 M300.039 251.542 L 300.083 255.583 301.958 255.630 L 303.833 255.678 303.833 251.589 L 303.833 247.500 301.914 247.500 L 299.994 247.500 300.039 251.542 M289.372 249.833 C 289.372 250.154,289.406 250.285,289.448 250.125 C 289.490 249.965,289.490 249.702,289.448 249.542 C 289.406 249.381,289.372 249.512,289.372 249.833 M107.887 251.667 C 107.887 252.262,107.917 252.506,107.954 252.208 C 107.991 251.910,107.991 251.423,107.954 251.125 C 107.917 250.827,107.887 251.071,107.887 251.667 M96.500 254.000 L 96.500 257.167 97.667 257.167 L 98.833 257.167 98.833 254.000 L 98.833 250.833 97.667 250.833 L 96.500 250.833 96.500 254.000 M288.900 255.083 C 288.900 256.458,288.926 256.999,288.957 256.284 C 288.989 255.569,288.988 254.444,288.957 253.784 C 288.925 253.124,288.900 253.708,288.900 255.083 M108.055 258.083 C 108.055 258.725,108.086 258.967,108.122 258.621 C 108.158 258.275,108.157 257.750,108.120 257.455 C 108.083 257.159,108.054 257.442,108.055 258.083 M96.611 258.778 C 96.550 258.839,96.500 259.326,96.500 259.861 L 96.500 260.833 97.667 260.833 L 98.833 260.833 98.833 259.750 L 98.833 258.667 97.778 258.667 C 97.197 258.667,96.672 258.717,96.611 258.778 M288.731 261.667 C 288.731 262.813,288.758 263.281,288.790 262.708 C 288.823 262.135,288.823 261.198,288.790 260.625 C 288.758 260.052,288.731 260.521,288.731 261.667 M300.033 262.125 L 300.083 263.083 301.958 263.130 L 303.833 263.178 303.833 262.172 L 303.833 261.167 301.908 261.167 L 299.983 261.167 300.033 262.125 M108.214 262.417 C 108.216 262.875,108.248 263.043,108.286 262.789 C 108.325 262.536,108.324 262.161,108.284 261.956 C 108.244 261.751,108.213 261.958,108.214 262.417 M288.559 265.917 C 288.559 266.742,288.587 267.100,288.622 266.713 C 288.657 266.327,288.657 265.652,288.623 265.213 C 288.588 264.775,288.560 265.092,288.559 265.917 M108.379 265.833 C 108.379 266.246,108.411 266.415,108.451 266.208 C 108.491 266.002,108.491 265.665,108.451 265.458 C 108.411 265.252,108.379 265.421,108.379 265.833 M108.542 268.583 C 108.544 268.950,108.578 269.080,108.618 268.873 C 108.658 268.666,108.656 268.366,108.615 268.206 C 108.573 268.047,108.540 268.217,108.542 268.583 M288.388 269.250 C 288.389 269.892,288.419 270.134,288.455 269.788 C 288.491 269.442,288.490 268.917,288.454 268.621 C 288.417 268.325,288.387 268.608,288.388 269.250 M108.705 270.833 C 108.705 271.154,108.740 271.285,108.782 271.125 C 108.823 270.965,108.823 270.702,108.782 270.542 C 108.740 270.381,108.705 270.512,108.705 270.833 M288.217 272.167 C 288.217 272.671,288.248 272.877,288.286 272.625 C 288.324 272.373,288.324 271.960,288.286 271.708 C 288.248 271.456,288.217 271.662,288.217 272.167 M288.045 274.500 C 288.045 274.912,288.078 275.081,288.118 274.875 C 288.157 274.669,288.157 274.331,288.118 274.125 C 288.078 273.919,288.045 274.087,288.045 274.500 M287.879 276.500 C 287.879 276.912,287.911 277.081,287.951 276.875 C 287.991 276.669,287.991 276.331,287.951 276.125 C 287.911 275.919,287.879 276.087,287.879 276.500 M287.705 278.500 C 287.705 278.821,287.740 278.952,287.782 278.792 C 287.823 278.631,287.823 278.369,287.782 278.208 C 287.740 278.048,287.705 278.179,287.705 278.500 " stroke="none" fill="#74c444" fill-rule="evenodd"></path><path id="path2" d="M192.165 91.986 C 190.285 92.132,186.689 94.067,181.600 97.672 C 160.742 112.445,149.068 133.688,147.668 159.417 C 147.568 161.250,147.417 163.162,147.332 163.667 C 145.172 176.493,146.465 194.726,150.533 208.798 C 150.938 210.198,151.158 211.234,151.069 211.313 C 150.985 211.387,150.017 211.829,148.917 212.295 C 140.514 215.858,134.713 219.085,127.417 224.257 C 123.522 227.017,121.684 227.927,116.526 229.645 C 111.683 231.259,110.451 232.137,109.158 234.895 C 107.976 237.416,107.004 242.232,107.241 244.390 C 107.820 249.668,107.994 252.065,108.078 255.917 C 108.283 265.304,108.895 274.055,109.862 281.387 L 110.231 284.190 112.164 286.054 C 157.445 329.710,227.832 334.178,278.083 296.585 C 280.146 295.042,285.096 291.066,285.980 290.242 C 287.017 289.276,288.812 267.469,288.833 255.583 C 288.836 253.929,288.949 252.379,289.167 251.000 C 289.774 247.156,289.552 243.997,288.411 240.242 C 287.119 235.987,285.839 234.872,280.083 232.989 C 274.867 231.282,272.638 230.159,268.846 227.329 C 263.707 223.494,255.417 218.872,248.243 215.842 C 246.872 215.262,245.708 214.766,245.657 214.737 C 245.606 214.709,245.808 213.351,246.107 211.718 C 247.444 204.422,248.824 191.983,248.832 187.172 C 248.833 186.671,248.945 185.959,249.081 185.589 C 249.347 184.865,250.391 177.649,251.071 171.833 C 251.884 164.878,252.061 162.387,252.072 157.750 L 252.083 153.250 251.530 150.917 C 247.881 135.515,244.046 125.483,238.531 116.917 C 228.319 101.054,215.244 93.031,197.940 92.009 C 194.844 91.826,194.248 91.824,192.165 91.986 M200.472 108.636 C 200.653 109.176,200.644 109.193,200.037 109.441 C 197.273 110.568,194.002 112.372,190.793 114.539 C 188.421 116.140,188.336 116.246,189.518 116.101 C 190.362 115.998,194.439 116.181,196.896 116.433 C 197.820 116.528,198.000 116.505,198.000 116.294 C 198.000 115.514,202.372 115.741,205.424 116.679 C 211.395 118.515,220.285 125.368,226.917 133.247 C 227.833 134.336,229.139 135.829,229.819 136.566 C 238.608 146.094,242.220 160.711,239.998 177.759 C 239.157 184.208,237.142 191.483,235.914 192.502 C 235.021 193.244,231.918 200.575,224.808 218.750 C 218.836 234.015,216.261 240.942,215.743 243.137 L 215.299 245.023 214.608 244.909 C 214.228 244.847,213.902 244.783,213.883 244.767 C 213.780 244.679,215.042 240.048,215.465 238.963 L 215.967 237.676 215.442 237.904 C 215.153 238.029,214.429 238.356,213.833 238.630 C 204.170 243.076,187.999 241.423,172.787 234.433 C 171.796 233.978,171.527 233.906,171.647 234.127 C 171.733 234.286,172.937 236.217,174.323 238.417 C 177.045 242.738,177.033 242.700,175.582 242.427 C 174.686 242.259,170.031 234.730,169.032 231.833 C 165.799 222.457,158.806 198.854,155.353 185.667 C 154.885 183.879,154.235 181.404,153.909 180.167 C 153.583 178.929,152.756 175.680,152.071 172.947 L 150.826 167.978 151.854 165.364 C 162.649 137.911,180.131 116.521,198.197 108.661 C 200.198 107.790,200.190 107.790,200.472 108.636 M201.917 119.435 C 197.842 120.483,191.430 123.906,185.368 128.270 C 183.745 129.438,180.954 131.443,179.167 132.724 C 168.575 140.315,166.785 142.346,165.514 148.222 C 163.805 156.122,166.156 176.412,170.185 188.526 C 175.470 204.418,183.201 212.528,195.736 215.331 C 208.427 218.168,220.821 208.393,227.945 189.926 L 228.849 187.583 231.008 166.608 C 232.195 155.071,233.167 145.531,233.167 145.408 C 233.167 145.142,230.404 141.416,227.899 138.303 C 217.519 125.405,207.368 118.034,201.917 119.435 M172.341 199.958 C 171.727 204.936,169.843 210.058,167.391 213.416 L 166.472 214.674 168.521 223.186 L 170.570 231.698 171.827 232.328 C 183.802 238.334,197.899 240.944,207.740 238.976 C 210.698 238.385,215.163 236.679,216.516 235.624 C 216.743 235.447,222.333 218.697,222.333 218.194 C 222.333 218.098,222.186 217.770,222.007 217.465 C 221.245 216.175,221.084 214.882,221.084 210.050 C 221.084 207.557,221.042 205.569,220.991 205.633 C 214.546 213.772,207.463 217.399,198.000 217.408 C 187.645 217.418,179.983 211.921,173.413 199.769 C 172.471 198.027,172.581 198.007,172.341 199.958 " stroke="none" fill="#fbfbfb" fill-rule="evenodd"></path></g></svg>