<svg id="Capa_1" enable-background="new 0 0 510.148 510.148" height="512" viewBox="0 0 510.148 510.148" width="512" xmlns="http://www.w3.org/2000/svg"><g><g><g><g><g><path d="m427.826 209.452h-29.488s.079 36.62 0 30.31c5.207.176 28.364 0 37.045.553s15 5.241 15 5.241c39.479 21.699 23.743 84.219-22.063 83.884h-36.192c-5.252 18.72-11.928 29.655-11.928 29.655h47.626c41.323 0 74.822-33.499 74.822-74.821 0-41.323-33.499-74.822-74.822-74.822z" fill="#fbf2e2"/></g></g><g><g><path d="m398.338 239.762s12.854.084 21.957.172c0-16.237 0-30.482 0-30.482h-21.958z" fill="#f7e0ba"/></g><g><path d="m392.129 329.44-11.929 29.655h21.958s6.676-10.935 11.928-29.655c-10.479 0-21.957 0-21.957 0z" fill="#f7e0ba"/></g></g><g><path d="m398.118 209.452h-330l-.335 60.916c49.085 2.088 89.403 36.449 101.511 81.998 5.353 17.055 3.157 50.76 3.567 68.826h152.511c78.698-55.563 74.145-123.682 72.746-211.74z" fill="#fbf2e2"/></g><g><path d="m347.636 398.212h-152.511s1.786-41.639-3.567-58.694c-12.108-45.549-52.091-81.702-101.176-88.128v-41.938h-22.264l-.335 60.916c49.085 2.088 89.403 36.449 101.511 81.998 5.353 17.055 3.157 50.76 3.567 68.826h152.511c16.033-11.32 28.609-23.161 38.461-35.585-4.966 4.273-10.346 8.475-16.197 12.605z" fill="#f7e0ba"/></g><g><path d="m7.788 420.09c0 24.958 20.232 45.19 45.19 45.19h375.503c24.958 0 45.19-20.232 45.19-45.19z" fill="#cfdbfa"/></g><g><path d="m443.135 442.917h-375.503c-16.819 0-31.482-9.196-39.263-22.827h-20.581c0 24.958 20.232 45.19 45.19 45.19h375.503c20.627 0 38.014-13.825 43.431-32.711-7.816 6.463-17.842 10.348-28.777 10.348z" fill="#9eb6f4"/></g><g><path d="m90.383 232.262h15v15h-15z" fill="#fff"/></g><g><path d="m120.383 232.262h15v15h-15z" fill="#fff"/></g><g><path d="m169.294 352.366c-12.509-47.06-55.131-82.18-106.423-82.101h-39.537v40.067c0 60.746 49.244 109.99 109.99 109.99h39.537c-.41-18.067 1.786-50.901-3.567-67.956z" fill="#6ad34d"/></g><g><path d="m172.943 402.421h-27.723c-60.746 0-99.984-42.24-99.984-102.986v-29.171c-10.542 0-21.903 0-21.903 0v40.067c0 60.746 49.244 109.99 109.99 109.99h39.537c-.136-6.032.017-9.711.083-17.9z" fill="#31a469"/></g><g><path d="m58.252 305.585h15v15.255h-15z" fill="#fff" transform="matrix(.707 -.707 .707 .707 -202.216 138.232)"/></g></g></g><g><path d="m384.699 366.595h43.127c45.393 0 82.321-36.929 82.321-82.321 0-45.393-36.929-82.322-82.321-82.322h-367.208v60.813h-44.784v50.448c1.668 43.581 17.386 74.582 59.692 99.377h-75.238c-3.185 31.488 20.384 60.401 52.69 60.19-.001 0 292.115 0 292.115 0v-15h-292.115c-18.215 0-33.453-12.989-36.94-30.19 36.925-.134 128.701.211 164.323.231v-.231h285.063c-9.474 38.209-45.631 29.255-75.329 30.19v15h38.388c32.302.211 55.882-28.705 52.69-60.19h-132.707c14.721-13.266 26.932-28.843 36.233-45.995zm43.127-149.643c88.79 2.346 88.742 132.322-.002 134.643h-35.535c1.71-3.956 3.619-8.878 5.452-14.655h30.579c53.155.311 72.101-72.079 25.759-97.91l-7.391 13.053c33.075 18.446 19.551 70.075-18.369 69.857h-26.567c5.287-20.022 3.995-53.309 4.086-74.678 4.505.137 24.301-.392 28.375.461l2.342-14.816c-5.639-1.134-24.718-.486-30.717-.645v-15.31zm-247.465 195.638c-.233-18.037 1.446-44.876-3.81-62.121l-14.399 5.449c4.201 13.986 3.159 31.697 3.208 46.296l-29.549-29.549v-42.8h-15v27.8l-33.831-33.831-10.607 10.606 32.925 32.924h-25.986v15h40.986l30.224 30.224c-64.502 7.25-122.963-34.241-123.688-102.258v-32.566c55.205-3.512 102.022 7.97 126.445 62.528l13.811-5.854c-16.778-39.587-53.417-66.431-95.472-70.982v-46.506h315v67.3c-1.397 29.511-6.745 58.444-23.797 82.343 0 0-24.786 33.503-42.237 45.995h-144.223z"/><path d="m360.094 457.781h15v15h-15z"/><path d="m169.17 157.441h33.788c16.501 0 29.925 13.424 29.925 29.925h15c0-24.771-20.153-44.925-44.925-44.925h-33.788c-14.495 0-26.287-11.792-26.287-26.288s11.792-26.288 26.287-26.288h131.213c28.948 0 52.5-23.551 52.5-52.5h-15c0 20.678-16.822 37.5-37.5 37.5h-131.213c-54.414 1.413-54.454 81.154 0 82.576z"/></g></g></svg>