<svg xmlns="http://www.w3.org/2000/svg" viewBox="0 0 100 49.72169954941832" xmlns:xlink="http://www.w3.org/1999/xlink" version="1.1"  ><g transform="translate(0 49.46541342019315) scale(0.2738099671208991)" id="verticalCircleSvgTemplate"><g fill="#000000"><g transform="translate(182.25840000000002 -128.506) scale(3)"><g fill="#000000"><g transform="translate(-17.383333333333333 -17.383333333333333) scale(0.3431372549019608)"><g fill="#000000"><circle vector-effect="non-scaling-stroke" cx="51" cy="51" r="50"></circle></g></g><g transform="translate(-13.608690476190475 -13.610913481987847) scale(0.05333333333333333)"><g fill="#FFFFFF"><path d="M121.6 256.1l48.5-48.4-26.6-26.6-75 75 54 54 26.4-26.7zM389.5 202.1l-26.4 26.6 27.3 27.4-48.3 48.5 26.4 26.5 75-75zM130.277 355.284l225-224.999 26.516 26.516-225 225z"></path></g></g></g></g><g transform="translate(-0.35999999999999993 -1.4210854715202004e-14) scale(0.9999999999999997)" fill="#000000"><path id="line1" fill="#000000" d="M0.360-43.488L17.640-43.488L17.640 0L30.672 0L30.672-43.488L47.952-43.488L47.952-55.656L0.360-55.656ZM82.922-22.392L82.922-33.768L64.490-33.768L64.490-44.280L84.506-44.280L84.506-55.656L51.458-55.656L51.458 0L85.370 0L85.370-11.376L64.490-11.376L64.490-22.392ZM117.029 0.936C125.381 0.936 132.869-2.592 138.197-8.208L128.981-17.064C126.101-13.752 121.781-11.664 117.029-11.664C108.173-11.664 101.117-18.936 101.117-27.936C101.117-36.936 108.173-44.208 117.029-44.208C121.781-44.208 126.101-42.048 128.981-38.736L138.197-47.664C132.869-53.280 125.381-56.808 117.029-56.808C101.045-56.808 88.157-43.920 88.157-27.936C88.157-11.952 101.045 0.936 117.029 0.936ZM175.039 0L188.071 0L188.071-55.656L175.039-55.656L175.039-34.200L155.095-34.200L155.095-55.656L142.063-55.656L142.063 0L155.095 0L155.095-22.032L175.039-22.032Z"></path></g><g transform="translate(194.13760000000002 -7.105427357601002e-15) scale(0.9999999999999999)" fill="#000000"><path id="line2" fill="#000000" d="M1.080-52.200L20.088-52.200L20.088 0L23.688 0L23.688-52.200L42.696-52.200L42.696-55.656L1.080-55.656ZM42.602 0L46.418 0L50.810-10.296L83.642-10.296L87.962 0L91.922 0L68.522-55.656L66.578-55.656ZM67.514-49.104L82.202-13.752L52.322-13.752ZM97.949 0L128.261 0L128.261-3.456L101.549-3.456L101.549-55.656L97.949-55.656ZM134.647 0L138.247 0L138.247-20.088L148.183-31.104L166.903 0L171.079 0L150.775-33.912L170.431-55.656L165.463-55.656L138.247-25.488L138.247-55.656L134.647-55.656Z"></path></g></g></g></svg>